G04*
G04 #@! TF.GenerationSoftware,Altium Limited,Altium Designer,22.3.1 (43)*
G04*
G04 Layer_Physical_Order=1*
G04 Layer_Color=255*
%FSLAX25Y25*%
%MOIN*%
G70*
G04*
G04 #@! TF.SameCoordinates,37EF6849-63C4-43C5-BECF-61DC3FF8894A*
G04*
G04*
G04 #@! TF.FilePolarity,Positive*
G04*
G01*
G75*
%ADD15C,0.01000*%
%ADD17O,0.07087X0.01181*%
%ADD18O,0.01181X0.07087*%
%ADD19R,0.02756X0.03543*%
%ADD20R,0.02362X0.01968*%
%ADD21R,0.04331X0.05118*%
%ADD22R,0.03937X0.04331*%
%ADD23R,0.06693X0.04331*%
%ADD24R,0.08465X0.03740*%
%ADD25R,0.08465X0.12795*%
%ADD26R,0.05118X0.06299*%
%ADD46C,0.01181*%
%ADD47C,0.03937*%
%ADD48C,0.01190*%
%ADD49C,0.01180*%
%ADD50C,0.01968*%
%ADD51C,0.01600*%
%ADD52C,0.03740*%
%ADD53C,0.04300*%
%ADD54R,0.03937X0.03937*%
%ADD55C,0.03937*%
%ADD56C,0.05118*%
%ADD57C,0.07284*%
%ADD58R,0.07284X0.07284*%
G04:AMPARAMS|DCode=59|XSize=75mil|YSize=60mil|CornerRadius=0mil|HoleSize=0mil|Usage=FLASHONLY|Rotation=180.000|XOffset=0mil|YOffset=0mil|HoleType=Round|Shape=Octagon|*
%AMOCTAGOND59*
4,1,8,-0.03750,0.01500,-0.03750,-0.01500,-0.02250,-0.03000,0.02250,-0.03000,0.03750,-0.01500,0.03750,0.01500,0.02250,0.03000,-0.02250,0.03000,-0.03750,0.01500,0.0*
%
%ADD59OCTAGOND59*%

%ADD60R,0.05906X0.05906*%
%ADD61C,0.05906*%
%ADD62C,0.02000*%
G36*
X231457Y25543D02*
X2243D01*
Y239757D01*
X231457D01*
X231457Y25543D01*
D02*
G37*
G36*
X114221Y-5368D02*
X114260D01*
X114304Y-5374D01*
X114410Y-5396D01*
X114526Y-5424D01*
X114648Y-5468D01*
X114770Y-5534D01*
X114832Y-5573D01*
X114887Y-5618D01*
X114893Y-5623D01*
X114898Y-5629D01*
X114915Y-5646D01*
X114931Y-5662D01*
X114959Y-5690D01*
X114981Y-5723D01*
X115042Y-5801D01*
X115103Y-5901D01*
X115159Y-6023D01*
X115209Y-6162D01*
X115242Y-6317D01*
X114770Y-6356D01*
Y-6350D01*
X114765Y-6345D01*
X114759Y-6312D01*
X114743Y-6261D01*
X114721Y-6200D01*
X114698Y-6134D01*
X114665Y-6067D01*
X114626Y-6006D01*
X114587Y-5956D01*
X114576Y-5945D01*
X114554Y-5923D01*
X114515Y-5890D01*
X114460Y-5851D01*
X114388Y-5818D01*
X114310Y-5784D01*
X114216Y-5762D01*
X114116Y-5751D01*
X114077D01*
X114032Y-5756D01*
X113982Y-5768D01*
X113916Y-5784D01*
X113849Y-5807D01*
X113783Y-5834D01*
X113716Y-5879D01*
X113705Y-5884D01*
X113677Y-5906D01*
X113638Y-5945D01*
X113588Y-6001D01*
X113533Y-6067D01*
X113472Y-6145D01*
X113416Y-6245D01*
X113361Y-6356D01*
Y-6361D01*
X113355Y-6373D01*
X113350Y-6389D01*
X113339Y-6411D01*
X113333Y-6445D01*
X113322Y-6483D01*
X113311Y-6528D01*
X113300Y-6583D01*
X113283Y-6645D01*
X113272Y-6711D01*
X113261Y-6783D01*
X113255Y-6861D01*
X113244Y-6950D01*
X113239Y-7039D01*
X113233Y-7139D01*
Y-7238D01*
X113239Y-7233D01*
X113261Y-7199D01*
X113300Y-7155D01*
X113350Y-7100D01*
X113405Y-7033D01*
X113477Y-6972D01*
X113555Y-6911D01*
X113644Y-6855D01*
X113649D01*
X113655Y-6850D01*
X113688Y-6833D01*
X113738Y-6816D01*
X113805Y-6789D01*
X113883Y-6767D01*
X113971Y-6750D01*
X114066Y-6733D01*
X114166Y-6728D01*
X114210D01*
X114243Y-6733D01*
X114288Y-6739D01*
X114332Y-6744D01*
X114388Y-6756D01*
X114443Y-6772D01*
X114571Y-6811D01*
X114637Y-6839D01*
X114704Y-6878D01*
X114770Y-6916D01*
X114843Y-6961D01*
X114909Y-7016D01*
X114970Y-7077D01*
X114976Y-7083D01*
X114987Y-7094D01*
X115004Y-7111D01*
X115020Y-7139D01*
X115048Y-7177D01*
X115076Y-7216D01*
X115103Y-7266D01*
X115137Y-7322D01*
X115170Y-7383D01*
X115198Y-7449D01*
X115226Y-7527D01*
X115253Y-7605D01*
X115270Y-7688D01*
X115287Y-7782D01*
X115298Y-7877D01*
X115303Y-7976D01*
Y-7982D01*
Y-7993D01*
Y-8010D01*
Y-8038D01*
X115298Y-8071D01*
Y-8104D01*
X115281Y-8193D01*
X115264Y-8298D01*
X115237Y-8409D01*
X115198Y-8531D01*
X115142Y-8648D01*
Y-8654D01*
X115137Y-8659D01*
X115126Y-8676D01*
X115115Y-8698D01*
X115081Y-8754D01*
X115031Y-8826D01*
X114970Y-8903D01*
X114898Y-8981D01*
X114809Y-9059D01*
X114715Y-9125D01*
X114709D01*
X114704Y-9131D01*
X114687Y-9142D01*
X114665Y-9148D01*
X114610Y-9175D01*
X114537Y-9203D01*
X114443Y-9236D01*
X114338Y-9258D01*
X114221Y-9281D01*
X114093Y-9286D01*
X114066D01*
X114038Y-9281D01*
X113994D01*
X113944Y-9275D01*
X113888Y-9264D01*
X113821Y-9247D01*
X113755Y-9231D01*
X113677Y-9209D01*
X113600Y-9181D01*
X113522Y-9148D01*
X113438Y-9103D01*
X113361Y-9053D01*
X113283Y-8998D01*
X113205Y-8931D01*
X113133Y-8853D01*
X113128Y-8848D01*
X113117Y-8831D01*
X113100Y-8809D01*
X113078Y-8770D01*
X113045Y-8720D01*
X113017Y-8665D01*
X112983Y-8592D01*
X112950Y-8515D01*
X112911Y-8421D01*
X112878Y-8315D01*
X112850Y-8198D01*
X112822Y-8071D01*
X112795Y-7927D01*
X112778Y-7771D01*
X112767Y-7605D01*
X112761Y-7427D01*
Y-7422D01*
Y-7416D01*
Y-7399D01*
Y-7377D01*
X112767Y-7322D01*
Y-7244D01*
X112773Y-7155D01*
X112784Y-7050D01*
X112795Y-6933D01*
X112811Y-6805D01*
X112834Y-6678D01*
X112861Y-6539D01*
X112895Y-6406D01*
X112934Y-6273D01*
X112983Y-6145D01*
X113039Y-6023D01*
X113100Y-5906D01*
X113172Y-5807D01*
X113178Y-5801D01*
X113189Y-5790D01*
X113211Y-5768D01*
X113239Y-5734D01*
X113272Y-5701D01*
X113316Y-5668D01*
X113372Y-5623D01*
X113427Y-5584D01*
X113494Y-5546D01*
X113566Y-5501D01*
X113649Y-5468D01*
X113733Y-5429D01*
X113827Y-5401D01*
X113927Y-5379D01*
X114032Y-5368D01*
X114143Y-5362D01*
X114188D01*
X114221Y-5368D01*
D02*
G37*
G36*
X126636Y-6378D02*
X126675D01*
X126714Y-6384D01*
X126809Y-6400D01*
X126908Y-6428D01*
X127014Y-6472D01*
X127119Y-6528D01*
X127208Y-6606D01*
X127219Y-6617D01*
X127241Y-6650D01*
X127280Y-6700D01*
X127297Y-6739D01*
X127319Y-6778D01*
X127341Y-6828D01*
X127358Y-6878D01*
X127380Y-6933D01*
X127397Y-7000D01*
X127408Y-7066D01*
X127419Y-7144D01*
X127430Y-7222D01*
Y-7310D01*
Y-9220D01*
X126958D01*
Y-7472D01*
Y-7466D01*
Y-7460D01*
Y-7427D01*
Y-7377D01*
X126953Y-7316D01*
X126947Y-7249D01*
X126942Y-7183D01*
X126931Y-7116D01*
X126914Y-7066D01*
Y-7061D01*
X126903Y-7044D01*
X126892Y-7022D01*
X126875Y-6994D01*
X126853Y-6961D01*
X126825Y-6927D01*
X126792Y-6894D01*
X126747Y-6861D01*
X126742Y-6855D01*
X126725Y-6850D01*
X126703Y-6839D01*
X126664Y-6822D01*
X126625Y-6805D01*
X126575Y-6794D01*
X126525Y-6789D01*
X126464Y-6783D01*
X126437D01*
X126414Y-6789D01*
X126359Y-6794D01*
X126292Y-6805D01*
X126215Y-6833D01*
X126131Y-6866D01*
X126048Y-6916D01*
X125970Y-6983D01*
X125965Y-6994D01*
X125943Y-7022D01*
X125909Y-7066D01*
X125876Y-7133D01*
X125837Y-7222D01*
X125810Y-7327D01*
X125787Y-7455D01*
X125776Y-7605D01*
Y-9220D01*
X125304D01*
Y-7416D01*
Y-7410D01*
Y-7399D01*
Y-7388D01*
Y-7366D01*
X125299Y-7305D01*
X125288Y-7238D01*
X125277Y-7161D01*
X125254Y-7083D01*
X125227Y-7011D01*
X125188Y-6944D01*
X125182Y-6939D01*
X125166Y-6916D01*
X125138Y-6894D01*
X125099Y-6861D01*
X125049Y-6833D01*
X124983Y-6805D01*
X124905Y-6789D01*
X124811Y-6783D01*
X124777D01*
X124738Y-6789D01*
X124694Y-6794D01*
X124638Y-6811D01*
X124572Y-6828D01*
X124511Y-6855D01*
X124444Y-6889D01*
X124439Y-6894D01*
X124416Y-6911D01*
X124389Y-6933D01*
X124350Y-6966D01*
X124311Y-7011D01*
X124272Y-7066D01*
X124233Y-7127D01*
X124200Y-7199D01*
X124194Y-7211D01*
X124189Y-7238D01*
X124178Y-7283D01*
X124161Y-7344D01*
X124144Y-7427D01*
X124133Y-7527D01*
X124128Y-7643D01*
X124122Y-7777D01*
Y-9220D01*
X123651D01*
Y-6434D01*
X124072D01*
Y-6833D01*
X124078Y-6822D01*
X124094Y-6800D01*
X124128Y-6761D01*
X124167Y-6717D01*
X124217Y-6661D01*
X124278Y-6606D01*
X124344Y-6550D01*
X124422Y-6500D01*
X124433Y-6495D01*
X124461Y-6478D01*
X124505Y-6461D01*
X124566Y-6434D01*
X124638Y-6411D01*
X124722Y-6395D01*
X124816Y-6378D01*
X124916Y-6373D01*
X124966D01*
X125027Y-6378D01*
X125093Y-6389D01*
X125177Y-6406D01*
X125260Y-6428D01*
X125343Y-6461D01*
X125421Y-6506D01*
X125432Y-6511D01*
X125454Y-6528D01*
X125488Y-6556D01*
X125532Y-6600D01*
X125576Y-6650D01*
X125626Y-6711D01*
X125671Y-6783D01*
X125704Y-6866D01*
X125710Y-6861D01*
X125721Y-6844D01*
X125737Y-6822D01*
X125765Y-6789D01*
X125798Y-6750D01*
X125837Y-6711D01*
X125882Y-6667D01*
X125937Y-6617D01*
X125998Y-6572D01*
X126059Y-6528D01*
X126131Y-6489D01*
X126209Y-6450D01*
X126292Y-6417D01*
X126381Y-6395D01*
X126470Y-6378D01*
X126570Y-6373D01*
X126609D01*
X126636Y-6378D01*
D02*
G37*
G36*
X122163D02*
X122202D01*
X122241Y-6384D01*
X122335Y-6400D01*
X122435Y-6428D01*
X122540Y-6472D01*
X122646Y-6528D01*
X122735Y-6606D01*
X122746Y-6617D01*
X122768Y-6650D01*
X122807Y-6700D01*
X122824Y-6739D01*
X122846Y-6778D01*
X122868Y-6828D01*
X122885Y-6878D01*
X122907Y-6933D01*
X122924Y-7000D01*
X122935Y-7066D01*
X122946Y-7144D01*
X122957Y-7222D01*
Y-7310D01*
Y-9220D01*
X122485D01*
Y-7472D01*
Y-7466D01*
Y-7460D01*
Y-7427D01*
Y-7377D01*
X122479Y-7316D01*
X122474Y-7249D01*
X122468Y-7183D01*
X122457Y-7116D01*
X122441Y-7066D01*
Y-7061D01*
X122430Y-7044D01*
X122418Y-7022D01*
X122402Y-6994D01*
X122380Y-6961D01*
X122352Y-6927D01*
X122318Y-6894D01*
X122274Y-6861D01*
X122269Y-6855D01*
X122252Y-6850D01*
X122230Y-6839D01*
X122191Y-6822D01*
X122152Y-6805D01*
X122102Y-6794D01*
X122052Y-6789D01*
X121991Y-6783D01*
X121963D01*
X121941Y-6789D01*
X121886Y-6794D01*
X121819Y-6805D01*
X121741Y-6833D01*
X121658Y-6866D01*
X121575Y-6916D01*
X121497Y-6983D01*
X121492Y-6994D01*
X121469Y-7022D01*
X121436Y-7066D01*
X121403Y-7133D01*
X121364Y-7222D01*
X121336Y-7327D01*
X121314Y-7455D01*
X121303Y-7605D01*
Y-9220D01*
X120831D01*
Y-7416D01*
Y-7410D01*
Y-7399D01*
Y-7388D01*
Y-7366D01*
X120826Y-7305D01*
X120815Y-7238D01*
X120803Y-7161D01*
X120781Y-7083D01*
X120753Y-7011D01*
X120715Y-6944D01*
X120709Y-6939D01*
X120692Y-6916D01*
X120665Y-6894D01*
X120626Y-6861D01*
X120576Y-6833D01*
X120509Y-6805D01*
X120431Y-6789D01*
X120337Y-6783D01*
X120304D01*
X120265Y-6789D01*
X120221Y-6794D01*
X120165Y-6811D01*
X120098Y-6828D01*
X120037Y-6855D01*
X119971Y-6889D01*
X119965Y-6894D01*
X119943Y-6911D01*
X119915Y-6933D01*
X119877Y-6966D01*
X119838Y-7011D01*
X119799Y-7066D01*
X119760Y-7127D01*
X119727Y-7199D01*
X119721Y-7211D01*
X119716Y-7238D01*
X119704Y-7283D01*
X119688Y-7344D01*
X119671Y-7427D01*
X119660Y-7527D01*
X119655Y-7643D01*
X119649Y-7777D01*
Y-9220D01*
X119177D01*
Y-6434D01*
X119599D01*
Y-6833D01*
X119605Y-6822D01*
X119621Y-6800D01*
X119655Y-6761D01*
X119693Y-6717D01*
X119743Y-6661D01*
X119804Y-6606D01*
X119871Y-6550D01*
X119949Y-6500D01*
X119960Y-6495D01*
X119987Y-6478D01*
X120032Y-6461D01*
X120093Y-6434D01*
X120165Y-6411D01*
X120248Y-6395D01*
X120343Y-6378D01*
X120443Y-6373D01*
X120493D01*
X120554Y-6378D01*
X120620Y-6389D01*
X120703Y-6406D01*
X120787Y-6428D01*
X120870Y-6461D01*
X120948Y-6506D01*
X120959Y-6511D01*
X120981Y-6528D01*
X121014Y-6556D01*
X121059Y-6600D01*
X121103Y-6650D01*
X121153Y-6711D01*
X121197Y-6783D01*
X121231Y-6866D01*
X121236Y-6861D01*
X121247Y-6844D01*
X121264Y-6822D01*
X121292Y-6789D01*
X121325Y-6750D01*
X121364Y-6711D01*
X121408Y-6667D01*
X121464Y-6617D01*
X121525Y-6572D01*
X121586Y-6528D01*
X121658Y-6489D01*
X121736Y-6450D01*
X121819Y-6417D01*
X121908Y-6395D01*
X121997Y-6378D01*
X122097Y-6373D01*
X122135D01*
X122163Y-6378D01*
D02*
G37*
G36*
X111119Y-5368D02*
X111191Y-5379D01*
X111280Y-5396D01*
X111380Y-5424D01*
X111479Y-5457D01*
X111579Y-5501D01*
X111585D01*
X111590Y-5507D01*
X111624Y-5523D01*
X111674Y-5557D01*
X111729Y-5596D01*
X111796Y-5651D01*
X111862Y-5712D01*
X111929Y-5784D01*
X111984Y-5867D01*
X111990Y-5879D01*
X112007Y-5906D01*
X112029Y-5956D01*
X112057Y-6017D01*
X112084Y-6089D01*
X112107Y-6173D01*
X112123Y-6267D01*
X112129Y-6361D01*
Y-6373D01*
Y-6406D01*
X112123Y-6450D01*
X112112Y-6511D01*
X112095Y-6583D01*
X112068Y-6661D01*
X112034Y-6739D01*
X111990Y-6816D01*
X111984Y-6828D01*
X111968Y-6850D01*
X111934Y-6889D01*
X111890Y-6933D01*
X111835Y-6983D01*
X111768Y-7039D01*
X111690Y-7089D01*
X111596Y-7139D01*
X111601D01*
X111613Y-7144D01*
X111629Y-7150D01*
X111651Y-7155D01*
X111713Y-7177D01*
X111790Y-7211D01*
X111879Y-7255D01*
X111968Y-7310D01*
X112051Y-7383D01*
X112129Y-7466D01*
X112134Y-7477D01*
X112156Y-7510D01*
X112190Y-7566D01*
X112223Y-7638D01*
X112256Y-7727D01*
X112290Y-7832D01*
X112312Y-7954D01*
X112317Y-8088D01*
Y-8093D01*
Y-8110D01*
Y-8137D01*
X112312Y-8171D01*
X112306Y-8215D01*
X112295Y-8265D01*
X112284Y-8321D01*
X112273Y-8382D01*
X112229Y-8515D01*
X112195Y-8587D01*
X112162Y-8654D01*
X112118Y-8726D01*
X112068Y-8798D01*
X112012Y-8870D01*
X111946Y-8937D01*
X111940Y-8942D01*
X111929Y-8953D01*
X111907Y-8970D01*
X111879Y-8992D01*
X111846Y-9020D01*
X111801Y-9048D01*
X111751Y-9081D01*
X111690Y-9109D01*
X111629Y-9142D01*
X111557Y-9175D01*
X111485Y-9203D01*
X111402Y-9231D01*
X111313Y-9253D01*
X111219Y-9270D01*
X111124Y-9281D01*
X111019Y-9286D01*
X110969D01*
X110935Y-9281D01*
X110891Y-9275D01*
X110841Y-9270D01*
X110786Y-9258D01*
X110725Y-9247D01*
X110591Y-9214D01*
X110453Y-9159D01*
X110380Y-9125D01*
X110314Y-9087D01*
X110247Y-9037D01*
X110181Y-8987D01*
X110175Y-8981D01*
X110164Y-8970D01*
X110147Y-8953D01*
X110131Y-8931D01*
X110103Y-8903D01*
X110075Y-8864D01*
X110042Y-8826D01*
X110009Y-8776D01*
X109975Y-8720D01*
X109942Y-8665D01*
X109881Y-8531D01*
X109831Y-8376D01*
X109814Y-8293D01*
X109803Y-8204D01*
X110275Y-8143D01*
Y-8149D01*
X110281Y-8160D01*
X110286Y-8182D01*
X110292Y-8210D01*
X110297Y-8243D01*
X110308Y-8282D01*
X110336Y-8365D01*
X110375Y-8465D01*
X110425Y-8559D01*
X110480Y-8648D01*
X110547Y-8726D01*
X110558Y-8731D01*
X110580Y-8754D01*
X110625Y-8781D01*
X110680Y-8809D01*
X110747Y-8842D01*
X110830Y-8870D01*
X110924Y-8892D01*
X111024Y-8898D01*
X111058D01*
X111080Y-8892D01*
X111141Y-8887D01*
X111219Y-8870D01*
X111307Y-8842D01*
X111402Y-8803D01*
X111496Y-8748D01*
X111585Y-8670D01*
X111596Y-8659D01*
X111624Y-8626D01*
X111657Y-8576D01*
X111701Y-8509D01*
X111746Y-8426D01*
X111779Y-8332D01*
X111807Y-8221D01*
X111818Y-8099D01*
Y-8093D01*
Y-8082D01*
Y-8065D01*
X111812Y-8043D01*
X111807Y-7982D01*
X111790Y-7910D01*
X111768Y-7821D01*
X111729Y-7732D01*
X111674Y-7643D01*
X111601Y-7560D01*
X111590Y-7549D01*
X111563Y-7527D01*
X111518Y-7494D01*
X111457Y-7455D01*
X111380Y-7416D01*
X111285Y-7383D01*
X111180Y-7361D01*
X111063Y-7349D01*
X111013D01*
X110974Y-7355D01*
X110924Y-7361D01*
X110869Y-7372D01*
X110802Y-7383D01*
X110730Y-7399D01*
X110786Y-6983D01*
X110813D01*
X110836Y-6989D01*
X110908D01*
X110969Y-6978D01*
X111041Y-6966D01*
X111124Y-6950D01*
X111219Y-6922D01*
X111307Y-6883D01*
X111402Y-6833D01*
X111407D01*
X111413Y-6828D01*
X111441Y-6805D01*
X111479Y-6767D01*
X111524Y-6717D01*
X111568Y-6645D01*
X111607Y-6561D01*
X111635Y-6467D01*
X111646Y-6411D01*
Y-6350D01*
Y-6345D01*
Y-6339D01*
Y-6306D01*
X111635Y-6261D01*
X111624Y-6200D01*
X111601Y-6134D01*
X111574Y-6062D01*
X111529Y-5990D01*
X111468Y-5923D01*
X111463Y-5917D01*
X111435Y-5895D01*
X111396Y-5867D01*
X111346Y-5834D01*
X111280Y-5807D01*
X111202Y-5779D01*
X111113Y-5756D01*
X111013Y-5751D01*
X110969D01*
X110919Y-5762D01*
X110852Y-5773D01*
X110780Y-5795D01*
X110708Y-5823D01*
X110630Y-5867D01*
X110558Y-5923D01*
X110553Y-5928D01*
X110530Y-5956D01*
X110497Y-5995D01*
X110458Y-6051D01*
X110419Y-6123D01*
X110380Y-6212D01*
X110347Y-6317D01*
X110325Y-6439D01*
X109853Y-6356D01*
Y-6350D01*
X109859Y-6334D01*
X109864Y-6312D01*
X109870Y-6278D01*
X109881Y-6239D01*
X109898Y-6195D01*
X109931Y-6089D01*
X109986Y-5967D01*
X110053Y-5845D01*
X110136Y-5729D01*
X110242Y-5623D01*
X110247Y-5618D01*
X110258Y-5612D01*
X110275Y-5601D01*
X110297Y-5584D01*
X110325Y-5562D01*
X110364Y-5540D01*
X110403Y-5518D01*
X110453Y-5490D01*
X110564Y-5446D01*
X110691Y-5401D01*
X110841Y-5374D01*
X110919Y-5362D01*
X111058D01*
X111119Y-5368D01*
D02*
G37*
G36*
X106590D02*
X106618D01*
X106656Y-5374D01*
X106751Y-5390D01*
X106856Y-5412D01*
X106973Y-5451D01*
X107089Y-5501D01*
X107206Y-5568D01*
X107211D01*
X107217Y-5579D01*
X107234Y-5590D01*
X107256Y-5607D01*
X107311Y-5651D01*
X107384Y-5712D01*
X107456Y-5795D01*
X107539Y-5895D01*
X107611Y-6012D01*
X107678Y-6145D01*
Y-6151D01*
X107683Y-6162D01*
X107694Y-6184D01*
X107705Y-6212D01*
X107717Y-6250D01*
X107733Y-6300D01*
X107744Y-6356D01*
X107761Y-6417D01*
X107778Y-6489D01*
X107794Y-6572D01*
X107805Y-6661D01*
X107816Y-6756D01*
X107827Y-6861D01*
X107839Y-6972D01*
X107844Y-7094D01*
Y-7222D01*
Y-7227D01*
Y-7255D01*
Y-7294D01*
Y-7344D01*
X107839Y-7405D01*
Y-7477D01*
X107833Y-7560D01*
X107822Y-7643D01*
X107805Y-7832D01*
X107778Y-8032D01*
X107739Y-8221D01*
X107711Y-8315D01*
X107683Y-8398D01*
Y-8404D01*
X107678Y-8415D01*
X107667Y-8437D01*
X107655Y-8470D01*
X107639Y-8504D01*
X107617Y-8548D01*
X107561Y-8642D01*
X107494Y-8748D01*
X107417Y-8859D01*
X107317Y-8964D01*
X107206Y-9059D01*
X107200D01*
X107189Y-9070D01*
X107173Y-9081D01*
X107150Y-9092D01*
X107117Y-9109D01*
X107084Y-9131D01*
X107039Y-9153D01*
X106995Y-9170D01*
X106889Y-9214D01*
X106762Y-9253D01*
X106623Y-9275D01*
X106468Y-9286D01*
X106423D01*
X106396Y-9281D01*
X106357D01*
X106312Y-9275D01*
X106207Y-9253D01*
X106090Y-9225D01*
X105968Y-9181D01*
X105846Y-9120D01*
X105785Y-9081D01*
X105730Y-9037D01*
X105724Y-9031D01*
X105719Y-9025D01*
X105702Y-9009D01*
X105685Y-8992D01*
X105663Y-8964D01*
X105635Y-8931D01*
X105580Y-8853D01*
X105524Y-8754D01*
X105469Y-8631D01*
X105424Y-8493D01*
X105391Y-8332D01*
X105846Y-8293D01*
Y-8298D01*
X105852Y-8309D01*
Y-8321D01*
X105857Y-8343D01*
X105874Y-8404D01*
X105896Y-8470D01*
X105924Y-8548D01*
X105963Y-8626D01*
X106007Y-8698D01*
X106063Y-8759D01*
X106068Y-8765D01*
X106090Y-8781D01*
X106129Y-8803D01*
X106174Y-8826D01*
X106235Y-8853D01*
X106307Y-8876D01*
X106390Y-8892D01*
X106479Y-8898D01*
X106518D01*
X106556Y-8892D01*
X106606Y-8887D01*
X106667Y-8876D01*
X106729Y-8859D01*
X106795Y-8837D01*
X106856Y-8803D01*
X106862Y-8798D01*
X106884Y-8787D01*
X106917Y-8765D01*
X106951Y-8731D01*
X106995Y-8692D01*
X107039Y-8648D01*
X107084Y-8598D01*
X107128Y-8537D01*
X107134Y-8531D01*
X107145Y-8504D01*
X107167Y-8465D01*
X107189Y-8415D01*
X107217Y-8348D01*
X107245Y-8271D01*
X107273Y-8182D01*
X107300Y-8082D01*
Y-8076D01*
X107306Y-8071D01*
Y-8054D01*
X107311Y-8032D01*
X107322Y-7976D01*
X107339Y-7904D01*
X107350Y-7816D01*
X107361Y-7721D01*
X107367Y-7616D01*
X107372Y-7505D01*
Y-7499D01*
Y-7483D01*
Y-7455D01*
Y-7410D01*
X107367Y-7422D01*
X107345Y-7449D01*
X107311Y-7488D01*
X107273Y-7544D01*
X107217Y-7599D01*
X107150Y-7660D01*
X107073Y-7721D01*
X106984Y-7777D01*
X106973Y-7782D01*
X106939Y-7799D01*
X106889Y-7821D01*
X106828Y-7843D01*
X106745Y-7871D01*
X106656Y-7893D01*
X106556Y-7910D01*
X106451Y-7915D01*
X106407D01*
X106373Y-7910D01*
X106329Y-7904D01*
X106285Y-7899D01*
X106229Y-7888D01*
X106174Y-7871D01*
X106046Y-7832D01*
X105979Y-7804D01*
X105913Y-7771D01*
X105841Y-7732D01*
X105774Y-7682D01*
X105707Y-7632D01*
X105646Y-7571D01*
X105641Y-7566D01*
X105630Y-7555D01*
X105619Y-7538D01*
X105596Y-7510D01*
X105569Y-7472D01*
X105541Y-7433D01*
X105513Y-7383D01*
X105485Y-7327D01*
X105452Y-7266D01*
X105424Y-7199D01*
X105397Y-7122D01*
X105369Y-7044D01*
X105347Y-6955D01*
X105335Y-6861D01*
X105324Y-6767D01*
X105319Y-6661D01*
Y-6656D01*
Y-6633D01*
Y-6606D01*
X105324Y-6567D01*
X105330Y-6517D01*
X105335Y-6456D01*
X105347Y-6395D01*
X105363Y-6323D01*
X105402Y-6178D01*
X105430Y-6101D01*
X105463Y-6017D01*
X105502Y-5940D01*
X105552Y-5867D01*
X105602Y-5790D01*
X105663Y-5723D01*
X105668Y-5718D01*
X105680Y-5707D01*
X105696Y-5690D01*
X105724Y-5668D01*
X105757Y-5640D01*
X105802Y-5607D01*
X105846Y-5579D01*
X105902Y-5540D01*
X105957Y-5507D01*
X106024Y-5479D01*
X106174Y-5418D01*
X106251Y-5396D01*
X106340Y-5379D01*
X106429Y-5368D01*
X106523Y-5362D01*
X106562D01*
X106590Y-5368D01*
D02*
G37*
G36*
X104697Y-5879D02*
X103160D01*
X102955Y-6916D01*
X102960Y-6911D01*
X102971Y-6905D01*
X102988Y-6894D01*
X103016Y-6878D01*
X103049Y-6861D01*
X103088Y-6839D01*
X103177Y-6794D01*
X103288Y-6750D01*
X103410Y-6711D01*
X103543Y-6683D01*
X103610Y-6672D01*
X103732D01*
X103765Y-6678D01*
X103809Y-6683D01*
X103859Y-6689D01*
X103915Y-6700D01*
X103976Y-6717D01*
X104109Y-6756D01*
X104181Y-6783D01*
X104253Y-6822D01*
X104325Y-6861D01*
X104398Y-6905D01*
X104464Y-6961D01*
X104531Y-7022D01*
X104536Y-7028D01*
X104547Y-7039D01*
X104564Y-7055D01*
X104586Y-7083D01*
X104614Y-7122D01*
X104642Y-7161D01*
X104675Y-7211D01*
X104708Y-7266D01*
X104736Y-7327D01*
X104769Y-7394D01*
X104797Y-7472D01*
X104825Y-7549D01*
X104847Y-7632D01*
X104864Y-7727D01*
X104875Y-7821D01*
X104880Y-7921D01*
Y-7927D01*
Y-7943D01*
Y-7971D01*
X104875Y-8010D01*
X104869Y-8054D01*
X104864Y-8104D01*
X104853Y-8165D01*
X104842Y-8226D01*
X104808Y-8371D01*
X104753Y-8520D01*
X104719Y-8598D01*
X104675Y-8670D01*
X104631Y-8748D01*
X104575Y-8820D01*
X104570Y-8826D01*
X104559Y-8842D01*
X104536Y-8864D01*
X104509Y-8892D01*
X104470Y-8925D01*
X104425Y-8970D01*
X104370Y-9009D01*
X104309Y-9053D01*
X104242Y-9098D01*
X104165Y-9137D01*
X104081Y-9175D01*
X103992Y-9214D01*
X103898Y-9242D01*
X103793Y-9264D01*
X103682Y-9281D01*
X103565Y-9286D01*
X103515D01*
X103476Y-9281D01*
X103432Y-9275D01*
X103382Y-9270D01*
X103321Y-9264D01*
X103260Y-9247D01*
X103121Y-9214D01*
X102982Y-9164D01*
X102910Y-9131D01*
X102838Y-9092D01*
X102771Y-9048D01*
X102705Y-8998D01*
X102699Y-8992D01*
X102688Y-8987D01*
X102677Y-8964D01*
X102655Y-8942D01*
X102627Y-8914D01*
X102599Y-8881D01*
X102566Y-8837D01*
X102538Y-8787D01*
X102505Y-8737D01*
X102472Y-8676D01*
X102411Y-8543D01*
X102361Y-8387D01*
X102344Y-8304D01*
X102333Y-8215D01*
X102827Y-8176D01*
Y-8182D01*
Y-8193D01*
X102832Y-8210D01*
X102838Y-8237D01*
X102855Y-8298D01*
X102877Y-8382D01*
X102910Y-8465D01*
X102955Y-8559D01*
X103010Y-8642D01*
X103077Y-8720D01*
X103088Y-8726D01*
X103110Y-8748D01*
X103154Y-8776D01*
X103215Y-8809D01*
X103282Y-8842D01*
X103365Y-8870D01*
X103460Y-8892D01*
X103565Y-8898D01*
X103598D01*
X103621Y-8892D01*
X103687Y-8887D01*
X103765Y-8864D01*
X103859Y-8837D01*
X103954Y-8792D01*
X104053Y-8726D01*
X104098Y-8687D01*
X104142Y-8642D01*
X104148Y-8637D01*
X104153Y-8631D01*
X104165Y-8615D01*
X104181Y-8598D01*
X104220Y-8537D01*
X104264Y-8459D01*
X104303Y-8365D01*
X104342Y-8248D01*
X104370Y-8110D01*
X104381Y-8038D01*
Y-7960D01*
Y-7954D01*
Y-7943D01*
Y-7921D01*
X104375Y-7893D01*
Y-7860D01*
X104370Y-7821D01*
X104353Y-7732D01*
X104325Y-7627D01*
X104287Y-7521D01*
X104231Y-7422D01*
X104153Y-7327D01*
Y-7322D01*
X104142Y-7316D01*
X104114Y-7288D01*
X104065Y-7249D01*
X103998Y-7205D01*
X103909Y-7166D01*
X103809Y-7127D01*
X103693Y-7100D01*
X103626Y-7089D01*
X103521D01*
X103476Y-7094D01*
X103421Y-7100D01*
X103354Y-7116D01*
X103288Y-7133D01*
X103215Y-7161D01*
X103143Y-7194D01*
X103138Y-7199D01*
X103115Y-7211D01*
X103082Y-7238D01*
X103038Y-7266D01*
X102993Y-7305D01*
X102949Y-7355D01*
X102899Y-7405D01*
X102860Y-7466D01*
X102416Y-7405D01*
X102788Y-5429D01*
X104697D01*
Y-5879D01*
D02*
G37*
G36*
X109098Y-9220D02*
Y-9225D01*
Y-9231D01*
Y-9247D01*
Y-9270D01*
X109093Y-9320D01*
X109087Y-9392D01*
X109071Y-9464D01*
X109054Y-9547D01*
X109026Y-9625D01*
X108993Y-9697D01*
X108987Y-9702D01*
X108971Y-9725D01*
X108949Y-9758D01*
X108910Y-9803D01*
X108865Y-9847D01*
X108810Y-9891D01*
X108738Y-9941D01*
X108660Y-9980D01*
X108527Y-9780D01*
X108532Y-9775D01*
X108549Y-9769D01*
X108577Y-9753D01*
X108610Y-9730D01*
X108643Y-9702D01*
X108682Y-9669D01*
X108715Y-9630D01*
X108743Y-9586D01*
X108749Y-9580D01*
X108754Y-9564D01*
X108765Y-9531D01*
X108782Y-9492D01*
X108793Y-9442D01*
X108810Y-9375D01*
X108821Y-9303D01*
X108826Y-9220D01*
X108560D01*
Y-8681D01*
X109098D01*
Y-9220D01*
D02*
G37*
G36*
X128446Y-5318D02*
X128462Y-5340D01*
X128485Y-5379D01*
X128518Y-5424D01*
X128562Y-5485D01*
X128607Y-5557D01*
X128657Y-5634D01*
X128712Y-5723D01*
X128773Y-5823D01*
X128829Y-5928D01*
X128890Y-6034D01*
X128951Y-6151D01*
X129062Y-6389D01*
X129117Y-6517D01*
X129162Y-6639D01*
Y-6645D01*
X129173Y-6667D01*
X129178Y-6695D01*
X129195Y-6739D01*
X129212Y-6789D01*
X129228Y-6850D01*
X129245Y-6922D01*
X129267Y-7000D01*
X129284Y-7089D01*
X129300Y-7183D01*
X129317Y-7277D01*
X129334Y-7383D01*
X129356Y-7605D01*
X129367Y-7832D01*
Y-7838D01*
Y-7865D01*
Y-7904D01*
X129361Y-7954D01*
Y-8015D01*
X129350Y-8093D01*
X129345Y-8176D01*
X129334Y-8271D01*
X129317Y-8371D01*
X129300Y-8482D01*
X129251Y-8709D01*
X129223Y-8831D01*
X129184Y-8953D01*
X129145Y-9081D01*
X129095Y-9203D01*
X129089Y-9209D01*
X129084Y-9231D01*
X129067Y-9264D01*
X129045Y-9314D01*
X129023Y-9369D01*
X128990Y-9436D01*
X128951Y-9508D01*
X128912Y-9591D01*
X128867Y-9680D01*
X128818Y-9769D01*
X128707Y-9963D01*
X128579Y-10163D01*
X128440Y-10352D01*
X128102D01*
Y-10346D01*
X128113Y-10335D01*
X128124Y-10319D01*
X128135Y-10296D01*
X128152Y-10263D01*
X128174Y-10230D01*
X128196Y-10185D01*
X128224Y-10136D01*
X128285Y-10024D01*
X128351Y-9886D01*
X128418Y-9736D01*
X128496Y-9564D01*
X128568Y-9381D01*
X128634Y-9186D01*
X128701Y-8975D01*
X128762Y-8759D01*
X128812Y-8537D01*
X128851Y-8304D01*
X128873Y-8071D01*
X128884Y-7832D01*
Y-7827D01*
Y-7810D01*
Y-7782D01*
Y-7749D01*
X128879Y-7705D01*
Y-7649D01*
X128873Y-7594D01*
X128867Y-7527D01*
X128862Y-7455D01*
X128856Y-7377D01*
X128834Y-7216D01*
X128806Y-7039D01*
X128768Y-6855D01*
Y-6850D01*
X128762Y-6839D01*
X128756Y-6816D01*
X128751Y-6789D01*
X128740Y-6756D01*
X128729Y-6711D01*
X128701Y-6611D01*
X128668Y-6500D01*
X128623Y-6373D01*
X128573Y-6234D01*
X128518Y-6101D01*
Y-6095D01*
X128512Y-6089D01*
X128507Y-6073D01*
X128496Y-6056D01*
X128485Y-6028D01*
X128468Y-5995D01*
X128451Y-5962D01*
X128429Y-5912D01*
X128401Y-5862D01*
X128374Y-5807D01*
X128340Y-5740D01*
X128301Y-5668D01*
X128257Y-5590D01*
X128213Y-5507D01*
X128157Y-5412D01*
X128102Y-5313D01*
X128440D01*
X128446Y-5318D01*
D02*
G37*
G36*
X118628D02*
X118622Y-5335D01*
X118606Y-5362D01*
X118583Y-5401D01*
X118556Y-5446D01*
X118528Y-5501D01*
X118461Y-5618D01*
X118389Y-5745D01*
X118323Y-5873D01*
X118256Y-5995D01*
X118234Y-6045D01*
X118211Y-6095D01*
Y-6101D01*
X118206Y-6112D01*
X118195Y-6128D01*
X118184Y-6156D01*
X118173Y-6189D01*
X118156Y-6228D01*
X118139Y-6273D01*
X118123Y-6323D01*
X118078Y-6439D01*
X118040Y-6567D01*
X118001Y-6706D01*
X117962Y-6850D01*
Y-6855D01*
X117956Y-6872D01*
X117951Y-6900D01*
X117945Y-6933D01*
X117934Y-6978D01*
X117929Y-7033D01*
X117917Y-7089D01*
X117906Y-7155D01*
X117895Y-7227D01*
X117884Y-7305D01*
X117867Y-7472D01*
X117856Y-7649D01*
X117851Y-7832D01*
Y-7838D01*
Y-7849D01*
Y-7865D01*
Y-7888D01*
X117856Y-7921D01*
Y-7954D01*
X117862Y-7999D01*
Y-8049D01*
X117873Y-8165D01*
X117890Y-8298D01*
X117917Y-8454D01*
X117951Y-8620D01*
X117990Y-8803D01*
X118040Y-9003D01*
X118106Y-9214D01*
X118184Y-9431D01*
X118273Y-9653D01*
X118372Y-9886D01*
X118495Y-10119D01*
X118633Y-10352D01*
X118295D01*
X118289Y-10346D01*
X118278Y-10330D01*
X118256Y-10302D01*
X118228Y-10263D01*
X118195Y-10219D01*
X118156Y-10163D01*
X118112Y-10097D01*
X118067Y-10024D01*
X118012Y-9941D01*
X117962Y-9852D01*
X117906Y-9758D01*
X117851Y-9658D01*
X117795Y-9553D01*
X117740Y-9442D01*
X117634Y-9203D01*
X117629Y-9198D01*
X117623Y-9175D01*
X117612Y-9137D01*
X117596Y-9087D01*
X117573Y-9025D01*
X117551Y-8959D01*
X117529Y-8876D01*
X117501Y-8781D01*
X117479Y-8687D01*
X117451Y-8576D01*
X117429Y-8465D01*
X117412Y-8348D01*
X117379Y-8093D01*
X117374Y-7965D01*
X117368Y-7832D01*
Y-7827D01*
Y-7804D01*
Y-7771D01*
X117374Y-7727D01*
Y-7671D01*
X117379Y-7605D01*
X117385Y-7532D01*
X117396Y-7449D01*
X117401Y-7361D01*
X117418Y-7266D01*
X117451Y-7066D01*
X117501Y-6855D01*
X117568Y-6639D01*
X117573Y-6633D01*
X117579Y-6611D01*
X117590Y-6572D01*
X117612Y-6522D01*
X117634Y-6467D01*
X117668Y-6395D01*
X117707Y-6312D01*
X117745Y-6223D01*
X117795Y-6128D01*
X117845Y-6023D01*
X117906Y-5912D01*
X117973Y-5801D01*
X118045Y-5679D01*
X118123Y-5557D01*
X118206Y-5435D01*
X118295Y-5313D01*
X118633D01*
X118628Y-5318D01*
D02*
G37*
%LPC*%
G36*
X107719Y232150D02*
X101401D01*
Y231174D01*
X97300D01*
X96582Y231079D01*
X95913Y230802D01*
X95339Y230361D01*
X91739Y226761D01*
X91298Y226187D01*
X91021Y225518D01*
X90926Y224800D01*
Y220874D01*
X89832D01*
Y225098D01*
X80168D01*
Y211102D01*
X89832D01*
Y215326D01*
X92969D01*
X92982Y215321D01*
X93700Y215226D01*
X94418Y215321D01*
X95087Y215598D01*
X95661Y216039D01*
X96102Y216613D01*
X96379Y217282D01*
X96474Y218000D01*
Y223651D01*
X98449Y225626D01*
X101401D01*
Y224650D01*
X107719D01*
Y232150D01*
D02*
G37*
G36*
X17300Y224383D02*
X16373Y224261D01*
X15508Y223903D01*
X14766Y223334D01*
X14197Y222592D01*
X13839Y221727D01*
X13717Y220800D01*
X13839Y219873D01*
X14197Y219008D01*
X14766Y218266D01*
X15508Y217697D01*
X16373Y217339D01*
X17300Y217217D01*
X18227Y217339D01*
X19092Y217697D01*
X19834Y218266D01*
X19846Y218282D01*
X30654D01*
Y218035D01*
X38546D01*
Y218282D01*
X39654D01*
Y218035D01*
X42804D01*
X44993Y215846D01*
X45003Y215831D01*
X46450Y214384D01*
X46465Y214374D01*
X53574Y207264D01*
X54391Y206718D01*
X55355Y206526D01*
X62165D01*
X62409Y206575D01*
X66998D01*
Y211515D01*
X62409D01*
X62165Y211563D01*
X56398D01*
X50427Y217535D01*
X50634Y218035D01*
X51804D01*
X53519Y216319D01*
X53519Y216319D01*
X54336Y215773D01*
X55300Y215581D01*
X55300Y215581D01*
X62165D01*
X62409Y215630D01*
X66998D01*
Y220570D01*
X62409D01*
X62165Y220619D01*
X56546D01*
Y223565D01*
X48654D01*
Y220015D01*
X48154Y219808D01*
X47546Y220415D01*
Y223565D01*
X39654D01*
Y223319D01*
X38546D01*
Y223565D01*
X30654D01*
Y223319D01*
X19846D01*
X19834Y223334D01*
X19092Y223903D01*
X18227Y224261D01*
X17300Y224383D01*
D02*
G37*
G36*
X115199Y232150D02*
X108881D01*
Y224650D01*
X109266D01*
Y221850D01*
X108881D01*
Y214350D01*
X115199D01*
Y221850D01*
X114814D01*
Y224650D01*
X115199D01*
Y232150D01*
D02*
G37*
G36*
X206891Y203970D02*
X206891Y203970D01*
X192126D01*
X192126Y203970D01*
X191662Y203877D01*
X191268Y203614D01*
X191268Y203614D01*
X174006Y186352D01*
X173583Y186400D01*
X173526Y186535D01*
X173410Y186857D01*
X173751Y187368D01*
X173875Y187992D01*
X173751Y188616D01*
X173398Y189146D01*
X172868Y189499D01*
X172244Y189623D01*
X171620Y189499D01*
X171181Y189206D01*
X163092D01*
X160878Y191420D01*
X161085Y191920D01*
X161124Y191920D01*
X165915D01*
Y197057D01*
X160778D01*
Y196360D01*
X160278Y196190D01*
X160178Y196320D01*
X159642Y196732D01*
X159017Y196991D01*
X158346Y197079D01*
X157676Y196991D01*
X157051Y196732D01*
X156515Y196320D01*
X156121Y195808D01*
X155852Y195768D01*
X155841D01*
X155572Y195808D01*
X155178Y196320D01*
X154642Y196732D01*
X154017Y196991D01*
X153347Y197079D01*
X152676Y196991D01*
X152051Y196732D01*
X151515Y196320D01*
X151103Y195783D01*
X150844Y195159D01*
X150756Y194488D01*
X150844Y193818D01*
X151103Y193193D01*
X151515Y192656D01*
X152051Y192245D01*
X152054Y192244D01*
Y189204D01*
X142807Y179957D01*
X142289Y179854D01*
X141760Y179500D01*
X141406Y178971D01*
X141282Y178347D01*
X141406Y177722D01*
X141760Y177193D01*
X142289Y176839D01*
X142403Y176816D01*
X142568Y176274D01*
X139671Y173377D01*
X139128Y173541D01*
X139106Y173656D01*
X138752Y174185D01*
X138223Y174539D01*
X137705Y174642D01*
X135190Y177156D01*
Y191893D01*
X135272Y191927D01*
X135808Y192338D01*
X136220Y192875D01*
X136479Y193500D01*
X136567Y194170D01*
X136479Y194841D01*
X136220Y195465D01*
X135808Y196002D01*
X135272Y196414D01*
X134647Y196672D01*
X133976Y196761D01*
X133306Y196672D01*
X132935Y196519D01*
X132822Y196496D01*
X132727Y196432D01*
X132681Y196414D01*
X132565Y196324D01*
X132428Y196233D01*
X132410Y196205D01*
X132144Y196002D01*
X132045Y195872D01*
X131545Y196042D01*
Y196739D01*
X126408D01*
Y191602D01*
X131545D01*
Y192298D01*
X132045Y192468D01*
X132144Y192338D01*
X132681Y191927D01*
X132763Y191893D01*
Y176654D01*
X132763Y176654D01*
X132855Y176189D01*
X133118Y175795D01*
X135988Y172925D01*
X136091Y172407D01*
X136445Y171878D01*
X136974Y171524D01*
X137089Y171502D01*
X137253Y170959D01*
X136761Y170466D01*
X136497Y170073D01*
X136405Y169608D01*
X136405Y169608D01*
Y168125D01*
X135905Y167918D01*
X124908Y178914D01*
X124515Y179177D01*
X124050Y179270D01*
X124050Y179270D01*
X41293D01*
X41147Y179664D01*
X41126Y179770D01*
X41468Y180281D01*
X41592Y180905D01*
X41468Y181530D01*
X41114Y182059D01*
X40585Y182413D01*
X39961Y182537D01*
X39336Y182413D01*
X38807Y182059D01*
X38454Y181530D01*
X38329Y180905D01*
X38454Y180281D01*
X38795Y179770D01*
X38774Y179664D01*
X38629Y179270D01*
X29860D01*
X25282Y183848D01*
Y187465D01*
X20145D01*
Y185914D01*
X14450D01*
Y186500D01*
X12650Y188300D01*
X7550D01*
X5750Y186500D01*
Y182900D01*
X7550Y181100D01*
X12650D01*
X14450Y182900D01*
Y183486D01*
X20145D01*
Y181935D01*
X23762D01*
X28499Y177198D01*
X28499Y177198D01*
X28893Y176934D01*
X29357Y176842D01*
X123547D01*
X134148Y166241D01*
X133829Y165853D01*
X133817Y165861D01*
X133498Y166074D01*
X132874Y166198D01*
X132250Y166074D01*
X131720Y165720D01*
X131367Y165191D01*
X131243Y164567D01*
X131367Y163943D01*
X131612Y163576D01*
X131626Y163490D01*
X131552Y163057D01*
X131505Y162956D01*
X131299Y162819D01*
X131036Y162425D01*
X130944Y161960D01*
Y156055D01*
X131036Y155590D01*
X131299Y155197D01*
X131693Y154934D01*
X132157Y154841D01*
X132622Y154934D01*
X133016Y155197D01*
X133279Y155590D01*
X133371Y156055D01*
Y161960D01*
X133279Y162425D01*
X133231Y162497D01*
X133461Y163052D01*
X133498Y163060D01*
X134028Y163413D01*
X134381Y163943D01*
X134880Y163890D01*
Y159008D01*
Y156055D01*
X134973Y155590D01*
X135236Y155197D01*
X135630Y154934D01*
X136094Y154841D01*
X136559Y154934D01*
X136711Y155035D01*
X137079Y155156D01*
X137446Y155035D01*
X137599Y154934D01*
X138063Y154841D01*
X138528Y154934D01*
X138680Y155035D01*
X139047Y155156D01*
X139415Y155035D01*
X139567Y154934D01*
X140031Y154841D01*
X140496Y154934D01*
X140648Y155035D01*
X141016Y155156D01*
X141383Y155035D01*
X141535Y154934D01*
X142000Y154841D01*
X142464Y154934D01*
X142617Y155035D01*
X142984Y155156D01*
X143352Y155035D01*
X143504Y154934D01*
X143968Y154841D01*
X144433Y154934D01*
X144585Y155035D01*
X144953Y155156D01*
X145320Y155035D01*
X145473Y154934D01*
X145937Y154841D01*
X146402Y154934D01*
X146795Y155197D01*
X147047D01*
X147441Y154934D01*
X147905Y154841D01*
X148370Y154934D01*
X148764Y155197D01*
X149016D01*
X149409Y154934D01*
X149874Y154841D01*
X150338Y154934D01*
X150491Y155035D01*
X150858Y155156D01*
X151226Y155035D01*
X151378Y154934D01*
X151843Y154841D01*
X152307Y154934D01*
X152459Y155035D01*
X152827Y155156D01*
X153194Y155035D01*
X153347Y154934D01*
X153811Y154841D01*
X154276Y154934D01*
X154669Y155197D01*
X154932Y155590D01*
X155025Y156055D01*
Y161960D01*
Y166064D01*
X155187Y166172D01*
X155540Y166701D01*
X155665Y167326D01*
X155540Y167950D01*
X155187Y168479D01*
X154783Y168749D01*
X154635Y169308D01*
X157931Y172605D01*
X170614D01*
X170904Y172105D01*
X170810Y171628D01*
X170934Y171004D01*
X171227Y170565D01*
Y152865D01*
X169529Y151167D01*
X155976D01*
X155512Y151074D01*
X155118Y150811D01*
X154855Y150417D01*
X154763Y149953D01*
X154855Y149488D01*
X155118Y149094D01*
Y148843D01*
X154855Y148449D01*
X154763Y147984D01*
X154855Y147520D01*
X154957Y147368D01*
X155077Y147000D01*
X154957Y146632D01*
X154855Y146480D01*
X154763Y146016D01*
X154855Y145551D01*
X155118Y145158D01*
Y144905D01*
X154855Y144512D01*
X154763Y144047D01*
X154855Y143583D01*
X154957Y143431D01*
X155077Y143063D01*
X154957Y142695D01*
X154855Y142543D01*
X154763Y142079D01*
X154855Y141614D01*
X155118Y141220D01*
Y140969D01*
X154855Y140575D01*
X154763Y140110D01*
X154855Y139646D01*
X154957Y139494D01*
X155077Y139126D01*
X154957Y138758D01*
X154855Y138606D01*
X154763Y138142D01*
X154855Y137677D01*
X155118Y137284D01*
Y137031D01*
X154855Y136638D01*
X154763Y136173D01*
X154855Y135709D01*
X154957Y135557D01*
X155077Y135189D01*
X154957Y134821D01*
X154855Y134669D01*
X154763Y134205D01*
X154855Y133740D01*
X155118Y133346D01*
Y133095D01*
X154855Y132701D01*
X154763Y132236D01*
X154855Y131772D01*
X155118Y131378D01*
X155512Y131115D01*
X155976Y131022D01*
X166670D01*
X179692Y118001D01*
Y62008D01*
X179692Y62008D01*
X179784Y61543D01*
X180047Y61150D01*
X190677Y50520D01*
X190677Y50520D01*
X191071Y50257D01*
X191535Y50164D01*
X191535Y50164D01*
X207566D01*
X208878Y48852D01*
Y45235D01*
X214015D01*
Y46986D01*
X219550D01*
Y46400D01*
X221350Y44600D01*
X226450D01*
X228250Y46400D01*
Y50000D01*
X226450Y51800D01*
X221350D01*
X219550Y50000D01*
Y49414D01*
X214015D01*
Y50765D01*
X210398D01*
X208927Y52236D01*
X208533Y52499D01*
X208068Y52592D01*
X208068Y52592D01*
X197294D01*
X197188Y53092D01*
X197610Y53374D01*
X197964Y53903D01*
X198088Y54528D01*
X197964Y55152D01*
X197610Y55681D01*
X197081Y56035D01*
X196457Y56159D01*
X195832Y56035D01*
X195303Y55681D01*
X194949Y55152D01*
X194825Y54528D01*
X194949Y53903D01*
X195303Y53374D01*
X195726Y53092D01*
X195619Y52592D01*
X192038D01*
X182119Y62511D01*
Y70826D01*
X182581Y71017D01*
X192449Y61150D01*
X192449Y61150D01*
X192843Y60886D01*
X193307Y60794D01*
X193307Y60794D01*
X207136D01*
X208878Y59052D01*
Y55435D01*
X214015D01*
Y56986D01*
X219550D01*
Y56400D01*
X221350Y54600D01*
X226450D01*
X228250Y56400D01*
Y60000D01*
X226450Y61800D01*
X221350D01*
X219550Y60000D01*
Y59414D01*
X214015D01*
Y60965D01*
X210398D01*
X208497Y62866D01*
X208103Y63129D01*
X207639Y63222D01*
X207639Y63222D01*
X198040D01*
X197773Y63722D01*
X197964Y64007D01*
X198088Y64631D01*
X197964Y65256D01*
X197610Y65785D01*
X197081Y66139D01*
X196457Y66263D01*
X195832Y66139D01*
X195303Y65785D01*
X194949Y65256D01*
X194825Y64631D01*
X194949Y64007D01*
X195140Y63722D01*
X194873Y63222D01*
X193810D01*
X183900Y73131D01*
Y77706D01*
X184362Y77897D01*
X191268Y70992D01*
X191268Y70992D01*
X191662Y70729D01*
X192126Y70636D01*
X192126Y70636D01*
X207293D01*
X208878Y69052D01*
Y65435D01*
X214015D01*
Y66986D01*
X219550D01*
Y66400D01*
X221350Y64600D01*
X226450D01*
X228250Y66400D01*
Y70000D01*
X226450Y71800D01*
X221350D01*
X219550Y70000D01*
Y69414D01*
X214015D01*
Y70965D01*
X210398D01*
X208654Y72709D01*
X208261Y72972D01*
X207796Y73064D01*
X207796Y73064D01*
X198126D01*
X198095Y73099D01*
X197905Y73564D01*
X198161Y73947D01*
X198285Y74572D01*
X198161Y75196D01*
X197807Y75725D01*
X197278Y76079D01*
X196653Y76203D01*
X196029Y76079D01*
X195500Y75725D01*
X195146Y75196D01*
X195022Y74572D01*
X195146Y73947D01*
X195402Y73564D01*
X195212Y73099D01*
X195181Y73064D01*
X192629D01*
X185682Y80011D01*
Y88917D01*
X186144Y89108D01*
X194220Y81031D01*
X194220Y81031D01*
X194614Y80768D01*
X195079Y80676D01*
X195079Y80676D01*
X207254D01*
X208878Y79052D01*
Y75435D01*
X214015D01*
Y76986D01*
X219550D01*
Y76400D01*
X221350Y74600D01*
X226450D01*
X228250Y76400D01*
Y80000D01*
X226450Y81800D01*
X221350D01*
X219550Y80000D01*
Y79414D01*
X214015D01*
Y80965D01*
X210398D01*
X208615Y82748D01*
X208221Y83011D01*
X207757Y83104D01*
X207757Y83104D01*
X198309D01*
X198246Y83181D01*
X198088Y83604D01*
X198358Y84007D01*
X198482Y84632D01*
X198358Y85256D01*
X198004Y85785D01*
X197475Y86139D01*
X196850Y86263D01*
X196226Y86139D01*
X195697Y85785D01*
X195343Y85256D01*
X195219Y84632D01*
X195241Y84522D01*
X194848Y83953D01*
X194749Y83937D01*
X187631Y91054D01*
Y96219D01*
X188093Y96411D01*
X193236Y91268D01*
X193236Y91268D01*
X193630Y91005D01*
X194095Y90912D01*
X194095Y90912D01*
X207018D01*
X208878Y89052D01*
Y85435D01*
X214015D01*
Y86986D01*
X219550D01*
Y86400D01*
X221350Y84600D01*
X226450D01*
X228250Y86400D01*
Y90000D01*
X226450Y91800D01*
X221350D01*
X219550Y90000D01*
Y89414D01*
X214015D01*
Y90965D01*
X210398D01*
X208379Y92984D01*
X207985Y93247D01*
X207521Y93340D01*
X207520Y93340D01*
X198481D01*
X198190Y93840D01*
X198285Y94317D01*
X198161Y94941D01*
X197807Y95470D01*
X197278Y95824D01*
X196653Y95948D01*
X196029Y95824D01*
X195500Y95470D01*
X195146Y94941D01*
X195022Y94317D01*
X195072Y94068D01*
X194732Y93585D01*
X194388Y93549D01*
X189412Y98525D01*
Y104871D01*
X189874Y105063D01*
X193630Y101307D01*
X194024Y101044D01*
X194488Y100952D01*
X194488Y100952D01*
X206978D01*
X208878Y99052D01*
Y95435D01*
X214015D01*
Y96986D01*
X219550D01*
Y96400D01*
X221350Y94600D01*
X226450D01*
X228250Y96400D01*
Y100000D01*
X226450Y101800D01*
X221350D01*
X219550Y100000D01*
Y99414D01*
X214015D01*
Y100965D01*
X210398D01*
X208340Y103024D01*
X207946Y103287D01*
X207481Y103379D01*
X207481Y103379D01*
X198538D01*
X198302Y103820D01*
X198358Y103903D01*
X198482Y104528D01*
X198358Y105152D01*
X198004Y105681D01*
X197475Y106035D01*
X196850Y106159D01*
X196226Y106035D01*
X195697Y105681D01*
X195343Y105152D01*
X195219Y104528D01*
X195280Y104219D01*
X194956Y103683D01*
X194920Y103663D01*
X194734Y103637D01*
X191193Y107177D01*
Y114507D01*
X191655Y114699D01*
X195657Y110698D01*
X195657Y110698D01*
X196050Y110434D01*
X196515Y110342D01*
X206712D01*
X208878Y108177D01*
Y105435D01*
X214015D01*
Y106986D01*
X219550D01*
Y106400D01*
X221350Y104600D01*
X226450D01*
X228250Y106400D01*
Y110000D01*
X226450Y111800D01*
X221350D01*
X219550Y110000D01*
Y109414D01*
X214015D01*
Y110965D01*
X209523D01*
X208074Y112414D01*
X207680Y112677D01*
X207215Y112770D01*
X207215Y112770D01*
X198867D01*
X198599Y113270D01*
X198786Y113549D01*
X198910Y114173D01*
X198786Y114797D01*
X198432Y115327D01*
X197903Y115680D01*
X197279Y115805D01*
X196654Y115680D01*
X196125Y115327D01*
X195772Y114797D01*
X195759Y114735D01*
X195217Y114571D01*
X192974Y116813D01*
Y121978D01*
X193436Y122170D01*
X194811Y120795D01*
X194811Y120795D01*
X195205Y120532D01*
X195669Y120440D01*
X195669Y120440D01*
X207490D01*
X208878Y119052D01*
Y115435D01*
X214015D01*
Y116986D01*
X219550D01*
Y116400D01*
X221350Y114600D01*
X226450D01*
X228250Y116400D01*
Y120000D01*
X226450Y121800D01*
X221350D01*
X219550Y120000D01*
Y119414D01*
X214015D01*
Y120965D01*
X210398D01*
X208851Y122512D01*
X208457Y122775D01*
X207993Y122867D01*
X207993Y122867D01*
X198280D01*
X198013Y123367D01*
X198161Y123588D01*
X198285Y124213D01*
X198161Y124837D01*
X197807Y125366D01*
X197278Y125720D01*
X196653Y125844D01*
X196029Y125720D01*
X195500Y125366D01*
X195146Y124837D01*
X195107Y124639D01*
X194565Y124475D01*
X189022Y130017D01*
X189214Y130479D01*
X207451D01*
X208878Y129052D01*
Y125435D01*
X214015D01*
Y126986D01*
X219550D01*
Y126400D01*
X221350Y124600D01*
X226450D01*
X228250Y126400D01*
Y130000D01*
X226450Y131800D01*
X221350D01*
X219550Y130000D01*
Y129414D01*
X214015D01*
Y130965D01*
X210398D01*
X208812Y132551D01*
X208418Y132814D01*
X207954Y132907D01*
X207954Y132907D01*
X198778D01*
X198627Y133407D01*
X198733Y133478D01*
X199087Y134007D01*
X199211Y134632D01*
X199087Y135256D01*
X198733Y135785D01*
X198204Y136139D01*
X197580Y136263D01*
X196956Y136139D01*
X196426Y135785D01*
X196073Y135256D01*
X195948Y134632D01*
X196073Y134007D01*
X196426Y133478D01*
X196533Y133407D01*
X196381Y132907D01*
X188889D01*
X172953Y148843D01*
X172559Y149106D01*
X172095Y149198D01*
X172095Y149198D01*
X171647D01*
X171455Y149660D01*
X173299Y151504D01*
X173299Y151504D01*
X173562Y151898D01*
X173655Y152362D01*
X173655Y152362D01*
Y170565D01*
X173948Y171004D01*
X174072Y171628D01*
X173977Y172105D01*
X174268Y172605D01*
X181190D01*
X185794Y168001D01*
Y150197D01*
X185794Y150197D01*
X185886Y149732D01*
X186150Y149338D01*
X194811Y140677D01*
X194811Y140677D01*
X195205Y140414D01*
X195669Y140322D01*
X202271D01*
X202272Y140322D01*
X202375Y140342D01*
X207133D01*
X207236Y140322D01*
X207608D01*
X208878Y139052D01*
Y135435D01*
X214015D01*
Y136986D01*
X219550D01*
Y136400D01*
X221350Y134600D01*
X226450D01*
X228250Y136400D01*
Y140000D01*
X226450Y141800D01*
X221350D01*
X219550Y140000D01*
Y139414D01*
X214015D01*
Y140965D01*
X210398D01*
X208969Y142394D01*
X208576Y142657D01*
X208111Y142749D01*
X208111Y142749D01*
X207318D01*
X207215Y142770D01*
X207215Y142770D01*
X202292D01*
X202189Y142749D01*
X198694D01*
X198608Y142861D01*
X198472Y143249D01*
X198751Y143667D01*
X198875Y144291D01*
X198751Y144916D01*
X198398Y145445D01*
X197868Y145799D01*
X197244Y145923D01*
X196620Y145799D01*
X196091Y145445D01*
X195737Y144916D01*
X195613Y144291D01*
X195681Y143947D01*
X195220Y143701D01*
X188222Y150700D01*
Y155356D01*
X188684Y155548D01*
X193534Y150698D01*
X193534Y150698D01*
X193928Y150434D01*
X194392Y150342D01*
X194392Y150342D01*
X207588D01*
X208878Y149052D01*
Y145435D01*
X214015D01*
Y146986D01*
X219550D01*
Y146400D01*
X221350Y144600D01*
X226450D01*
X228250Y146400D01*
Y150000D01*
X226450Y151800D01*
X221350D01*
X219550Y150000D01*
Y149414D01*
X214015D01*
Y150965D01*
X210398D01*
X208949Y152414D01*
X208555Y152677D01*
X208091Y152770D01*
X208090Y152770D01*
X198091D01*
X197976Y152934D01*
X197869Y153270D01*
X198161Y153706D01*
X198285Y154331D01*
X198161Y154955D01*
X197807Y155484D01*
X197278Y155838D01*
X196653Y155962D01*
X196029Y155838D01*
X195500Y155484D01*
X195146Y154955D01*
X195022Y154331D01*
X195146Y153706D01*
X195342Y153414D01*
X195133Y152918D01*
X194771Y152894D01*
X190190Y157475D01*
Y162865D01*
X190690Y162999D01*
X190874Y162724D01*
X192901Y160698D01*
X192901Y160698D01*
X193295Y160434D01*
X193759Y160342D01*
X193759Y160342D01*
X207588D01*
X208878Y159052D01*
Y155435D01*
X214015D01*
Y156986D01*
X219550D01*
Y156400D01*
X221350Y154600D01*
X226450D01*
X228250Y156400D01*
Y160000D01*
X226450Y161800D01*
X221350D01*
X219550Y160000D01*
Y159414D01*
X214015D01*
Y160965D01*
X210398D01*
X208949Y162414D01*
X208555Y162677D01*
X208091Y162770D01*
X208090Y162770D01*
X198241D01*
X197974Y163270D01*
X198161Y163549D01*
X198285Y164173D01*
X198161Y164797D01*
X197807Y165327D01*
X197278Y165680D01*
X196653Y165805D01*
X196029Y165680D01*
X195500Y165327D01*
X195146Y164797D01*
X195022Y164173D01*
X195146Y163549D01*
X195333Y163270D01*
X195066Y162770D01*
X194262D01*
X192946Y164085D01*
Y168898D01*
X192946Y168898D01*
X192854Y169362D01*
X192591Y169756D01*
X192591Y169756D01*
X192405Y169942D01*
X192612Y170442D01*
X207206D01*
X207218Y170440D01*
X207590D01*
X208878Y169152D01*
Y165535D01*
X214015D01*
Y167086D01*
X219550D01*
Y166400D01*
X221350Y164600D01*
X226450D01*
X228250Y166400D01*
Y170000D01*
X226450Y171800D01*
X221350D01*
X219550Y170000D01*
Y169514D01*
X214015D01*
Y171065D01*
X210398D01*
X208951Y172512D01*
X208558Y172775D01*
X208093Y172867D01*
X208093Y172867D01*
X207227D01*
X207215Y172870D01*
X207215Y172870D01*
X198105D01*
X198023Y172976D01*
X197883Y173370D01*
X198161Y173785D01*
X198285Y174409D01*
X198161Y175034D01*
X197807Y175563D01*
X197278Y175917D01*
X196653Y176041D01*
X196029Y175917D01*
X195500Y175563D01*
X195146Y175034D01*
X195022Y174409D01*
X195146Y173785D01*
X195424Y173370D01*
X195284Y172976D01*
X195202Y172870D01*
X192430D01*
X185419Y179880D01*
X185611Y180342D01*
X207538D01*
X208878Y179002D01*
Y175435D01*
X214015D01*
Y176986D01*
X219550D01*
Y176400D01*
X221350Y174600D01*
X226450D01*
X228250Y176400D01*
Y180000D01*
X226450Y181800D01*
X221350D01*
X219550Y180000D01*
Y179414D01*
X214015D01*
Y180965D01*
X210349D01*
X208900Y182414D01*
X208506Y182677D01*
X208041Y182770D01*
X208041Y182770D01*
X198147D01*
X197922Y183270D01*
X198161Y183628D01*
X198285Y184252D01*
X198161Y184876D01*
X197807Y185406D01*
X197278Y185759D01*
X196653Y185883D01*
X196029Y185759D01*
X195500Y185406D01*
X195146Y184876D01*
X195022Y184252D01*
X195146Y183628D01*
X195386Y183270D01*
X195160Y182770D01*
X177266D01*
X177074Y183232D01*
X184185Y190342D01*
X206712D01*
X208878Y188177D01*
Y185435D01*
X214015D01*
Y186986D01*
X219550D01*
Y186400D01*
X221350Y184600D01*
X226450D01*
X228250Y186400D01*
Y190000D01*
X226450Y191800D01*
X221350D01*
X219550Y190000D01*
Y189414D01*
X214015D01*
Y190965D01*
X209523D01*
X208074Y192414D01*
X207680Y192677D01*
X207215Y192770D01*
X207215Y192770D01*
X198252D01*
X198100Y193270D01*
X198167Y193315D01*
X198521Y193844D01*
X198645Y194468D01*
X198521Y195092D01*
X198167Y195622D01*
X197638Y195975D01*
X197014Y196099D01*
X196390Y195975D01*
X195860Y195622D01*
X195507Y195092D01*
X195382Y194468D01*
X195507Y193844D01*
X195860Y193315D01*
X195927Y193270D01*
X195775Y192770D01*
X184510D01*
X184318Y193232D01*
X192629Y201542D01*
X206388D01*
X208878Y199052D01*
Y195435D01*
X214015D01*
Y196986D01*
X219550D01*
Y196400D01*
X221350Y194600D01*
X226450D01*
X228250Y196400D01*
Y200000D01*
X226450Y201800D01*
X221350D01*
X219550Y200000D01*
Y199414D01*
X214015D01*
Y200965D01*
X210398D01*
X207749Y203614D01*
X207355Y203877D01*
X206891Y203970D01*
D02*
G37*
G36*
X168307Y159112D02*
X167683Y158987D01*
X167154Y158634D01*
X166800Y158105D01*
X166676Y157480D01*
X166800Y156856D01*
X167154Y156327D01*
X167516Y156085D01*
X167523Y156066D01*
Y155548D01*
X167516Y155529D01*
X167154Y155287D01*
X167031Y155104D01*
X155976D01*
X155512Y155011D01*
X155118Y154748D01*
X154855Y154354D01*
X154763Y153890D01*
X154855Y153425D01*
X155118Y153032D01*
X155512Y152768D01*
X155976Y152676D01*
X167609D01*
X167683Y152627D01*
X168307Y152503D01*
X168931Y152627D01*
X169461Y152980D01*
X169814Y153510D01*
X169938Y154134D01*
X169814Y154758D01*
X169461Y155287D01*
X169099Y155529D01*
X169092Y155548D01*
Y156066D01*
X169099Y156085D01*
X169461Y156327D01*
X169814Y156856D01*
X169938Y157480D01*
X169814Y158105D01*
X169461Y158634D01*
X168931Y158987D01*
X168307Y159112D01*
D02*
G37*
G36*
X92042Y162351D02*
X91217Y162242D01*
X90449Y161924D01*
X89789Y161418D01*
X89282Y160758D01*
X88964Y159989D01*
X88855Y159165D01*
X88964Y158340D01*
X89282Y157571D01*
X89789Y156912D01*
X90449Y156405D01*
X91217Y156087D01*
X92042Y155978D01*
X92866Y156087D01*
X93635Y156405D01*
X93716Y156467D01*
X94046Y156091D01*
X91183Y153228D01*
X91183Y153228D01*
X90920Y152834D01*
X90828Y152369D01*
X90828Y152369D01*
Y149876D01*
X90449Y149719D01*
X89789Y149213D01*
X89282Y148553D01*
X88964Y147784D01*
X88855Y146960D01*
X88964Y146135D01*
X89282Y145367D01*
X89789Y144707D01*
X90449Y144200D01*
X91217Y143882D01*
X92042Y143773D01*
X92866Y143882D01*
X93635Y144200D01*
X94295Y144707D01*
X94801Y145367D01*
X95120Y146135D01*
X95228Y146960D01*
X95120Y147784D01*
X94801Y148553D01*
X94295Y149213D01*
X93635Y149719D01*
X93256Y149876D01*
Y151867D01*
X97493Y156104D01*
X103469D01*
X111882Y147691D01*
X111691Y147229D01*
X103707D01*
X103707Y147229D01*
X103417Y147171D01*
X103243Y147136D01*
X103243Y147136D01*
X102849Y146873D01*
X102849Y146873D01*
X100866Y144891D01*
X99217D01*
Y141722D01*
X99571D01*
Y140249D01*
X98233D01*
Y133931D01*
X103764D01*
Y140249D01*
X102426D01*
Y141722D01*
X102779D01*
Y143371D01*
X104210Y144801D01*
X115065D01*
X115256Y144339D01*
X111132Y140216D01*
X110869Y139822D01*
X110777Y139357D01*
X110777Y139357D01*
Y131194D01*
X105320D01*
Y124876D01*
X106470D01*
Y122646D01*
X106304D01*
Y119478D01*
X106107Y119190D01*
X106107D01*
Y114447D01*
X110063D01*
Y119190D01*
X110063D01*
X109866Y119478D01*
Y122646D01*
X109700D01*
Y124876D01*
X110777D01*
Y118818D01*
X110777Y118818D01*
X110869Y118354D01*
X111132Y117960D01*
X112013Y117079D01*
Y114447D01*
X115969D01*
Y119190D01*
X113336D01*
X113205Y119321D01*
Y138854D01*
X115978Y141627D01*
X116478Y141472D01*
X116499Y141442D01*
X116382Y140852D01*
X116506Y140228D01*
X116860Y139699D01*
X117389Y139345D01*
X118013Y139221D01*
X118638Y139345D01*
X119167Y139699D01*
X119521Y140228D01*
X119624Y140745D01*
X119742Y140864D01*
X127038D01*
X127042Y140865D01*
X129992D01*
X130457Y140957D01*
X130851Y141220D01*
X131114Y141614D01*
X131206Y142079D01*
X131114Y142543D01*
X131012Y142695D01*
X130892Y143063D01*
X131012Y143431D01*
X131114Y143583D01*
X131206Y144047D01*
X131114Y144512D01*
X130851Y144905D01*
Y145158D01*
X131114Y145551D01*
X131206Y146016D01*
X131114Y146480D01*
X131012Y146632D01*
X130892Y147000D01*
X131012Y147368D01*
X131114Y147520D01*
X131206Y147984D01*
X131114Y148449D01*
X130851Y148843D01*
Y149094D01*
X131114Y149488D01*
X131206Y149953D01*
X131114Y150417D01*
X131012Y150569D01*
X130892Y150937D01*
X131012Y151305D01*
X131114Y151457D01*
X131206Y151921D01*
X131114Y152386D01*
X130851Y152779D01*
Y153032D01*
X131114Y153425D01*
X131206Y153890D01*
X131114Y154354D01*
X130851Y154748D01*
X130457Y155011D01*
X129992Y155104D01*
X124087D01*
X123622Y155011D01*
X123228Y154748D01*
X122965Y154354D01*
X122873Y153890D01*
X122965Y153425D01*
X123228Y153032D01*
Y152779D01*
X122965Y152386D01*
X122873Y151921D01*
X122924Y151666D01*
X122604Y151166D01*
X114359D01*
X105502Y160023D01*
X105109Y160286D01*
X104644Y160379D01*
X104644Y160379D01*
X94958D01*
X94801Y160758D01*
X94295Y161418D01*
X93635Y161924D01*
X92866Y162242D01*
X92042Y162351D01*
D02*
G37*
G36*
X12650Y178300D02*
X7550D01*
X5750Y176500D01*
Y172900D01*
X7550Y171100D01*
X12650D01*
X14450Y172900D01*
Y173486D01*
X20145D01*
Y171935D01*
X23762D01*
X28699Y166998D01*
X28699Y166998D01*
X29093Y166734D01*
X29557Y166642D01*
X44633D01*
X61778Y149497D01*
Y146300D01*
X61316Y146109D01*
X48511Y158914D01*
X48117Y159177D01*
X47653Y159270D01*
X47653Y159270D01*
X41057D01*
X40905Y159770D01*
X40917Y159778D01*
X41271Y160307D01*
X41395Y160932D01*
X41271Y161556D01*
X40917Y162085D01*
X40388Y162439D01*
X39764Y162563D01*
X39140Y162439D01*
X38610Y162085D01*
X38257Y161556D01*
X38132Y160932D01*
X38257Y160307D01*
X38610Y159778D01*
X38622Y159770D01*
X38471Y159270D01*
X29660D01*
X25282Y163648D01*
Y167265D01*
X20145D01*
Y165714D01*
X14450D01*
Y166500D01*
X12650Y168300D01*
X7550D01*
X5750Y166500D01*
Y162900D01*
X7550Y161100D01*
X12650D01*
X14450Y162900D01*
Y163286D01*
X20145D01*
Y161735D01*
X23762D01*
X28299Y157198D01*
X28693Y156934D01*
X29157Y156842D01*
X29158Y156842D01*
X47150D01*
X59997Y143995D01*
Y136270D01*
X59535Y136079D01*
X45815Y149799D01*
X45421Y150062D01*
X44957Y150155D01*
X44957Y150155D01*
X41591D01*
X41300Y150655D01*
X41395Y151131D01*
X41271Y151756D01*
X40917Y152285D01*
X40388Y152639D01*
X39764Y152763D01*
X39140Y152639D01*
X38610Y152285D01*
X38257Y151756D01*
X38132Y151131D01*
X38227Y150655D01*
X37936Y150155D01*
X29081D01*
X25282Y153954D01*
Y157465D01*
X20145D01*
Y155914D01*
X14450D01*
Y156500D01*
X12650Y158300D01*
X7550D01*
X5750Y156500D01*
Y152900D01*
X7550Y151100D01*
X12650D01*
X14450Y152900D01*
Y153486D01*
X20145D01*
Y151935D01*
X23868D01*
X27720Y148083D01*
X28113Y147819D01*
X28578Y147727D01*
X28578Y147727D01*
X44454D01*
X58216Y133965D01*
Y127422D01*
X57754Y127230D01*
X45185Y139799D01*
X44791Y140062D01*
X44327Y140155D01*
X44327Y140155D01*
X41591D01*
X41300Y140655D01*
X41395Y141131D01*
X41271Y141756D01*
X40917Y142285D01*
X40388Y142639D01*
X39764Y142763D01*
X39140Y142639D01*
X38610Y142285D01*
X38257Y141756D01*
X38132Y141131D01*
X38227Y140655D01*
X37936Y140155D01*
X28975D01*
X25282Y143848D01*
Y147465D01*
X20145D01*
Y145914D01*
X14450D01*
Y146500D01*
X12650Y148300D01*
X7550D01*
X5750Y146500D01*
Y142900D01*
X7550Y141100D01*
X12650D01*
X14450Y142900D01*
Y143486D01*
X20145D01*
Y141935D01*
X23762D01*
X27614Y138083D01*
X27614Y138083D01*
X28008Y137820D01*
X28472Y137727D01*
X43824D01*
X56435Y125116D01*
Y119754D01*
X55973Y119563D01*
X45736Y129799D01*
X45342Y130062D01*
X44878Y130155D01*
X44878Y130155D01*
X41394D01*
X41104Y130655D01*
X41198Y131131D01*
X41074Y131756D01*
X40720Y132285D01*
X40191Y132639D01*
X39567Y132763D01*
X38943Y132639D01*
X38413Y132285D01*
X38060Y131756D01*
X37936Y131131D01*
X38030Y130655D01*
X37740Y130155D01*
X28582D01*
X25282Y133455D01*
Y137465D01*
X20145D01*
Y135914D01*
X14450D01*
Y136500D01*
X12650Y138300D01*
X7550D01*
X5750Y136500D01*
Y132900D01*
X7550Y131100D01*
X12650D01*
X14450Y132900D01*
Y133486D01*
X20145D01*
Y131935D01*
X23368D01*
X27220Y128083D01*
X27614Y127820D01*
X28079Y127727D01*
X28079Y127727D01*
X44375D01*
X54654Y117448D01*
Y111693D01*
X54192Y111501D01*
X46779Y118914D01*
X46385Y119177D01*
X45921Y119270D01*
X45920Y119270D01*
X40758D01*
X40606Y119770D01*
X40917Y119978D01*
X41271Y120507D01*
X41395Y121132D01*
X41271Y121756D01*
X40917Y122285D01*
X40388Y122639D01*
X39764Y122763D01*
X39140Y122639D01*
X38610Y122285D01*
X38257Y121756D01*
X38132Y121132D01*
X38257Y120507D01*
X38610Y119978D01*
X38922Y119770D01*
X38770Y119270D01*
X29860D01*
X25282Y123848D01*
Y127465D01*
X20145D01*
Y125914D01*
X14450D01*
Y126500D01*
X12650Y128300D01*
X7550D01*
X5750Y126500D01*
Y122900D01*
X7550Y121100D01*
X12650D01*
X14450Y122900D01*
Y123486D01*
X20145D01*
Y121935D01*
X23762D01*
X28499Y117198D01*
X28499Y117198D01*
X28893Y116934D01*
X29357Y116842D01*
X45418D01*
X52873Y109387D01*
Y97135D01*
X52411Y96944D01*
X40440Y108914D01*
X40277Y109024D01*
X40250Y109178D01*
X40310Y109596D01*
X40720Y109870D01*
X41074Y110399D01*
X41198Y111024D01*
X41074Y111648D01*
X40720Y112177D01*
X40191Y112531D01*
X39567Y112655D01*
X38943Y112531D01*
X38413Y112177D01*
X38060Y111648D01*
X37936Y111024D01*
X38060Y110399D01*
X38413Y109870D01*
X38563Y109770D01*
X38412Y109270D01*
X29860D01*
X25282Y113848D01*
Y117465D01*
X20145D01*
Y115914D01*
X14450D01*
Y116500D01*
X12650Y118300D01*
X7550D01*
X5750Y116500D01*
Y112900D01*
X7550Y111100D01*
X12650D01*
X14450Y112900D01*
Y113486D01*
X20145D01*
Y111935D01*
X23762D01*
X28499Y107198D01*
X28499Y107198D01*
X28893Y106934D01*
X29357Y106842D01*
X39079D01*
X50951Y94970D01*
Y92167D01*
X50489Y91975D01*
X43551Y98914D01*
X43157Y99177D01*
X42692Y99270D01*
X42692Y99270D01*
X41033D01*
X40986Y99325D01*
X40811Y99770D01*
X41074Y100163D01*
X41198Y100787D01*
X41074Y101412D01*
X40720Y101941D01*
X40191Y102295D01*
X39567Y102419D01*
X38943Y102295D01*
X38413Y101941D01*
X38060Y101412D01*
X37936Y100787D01*
X38060Y100163D01*
X38323Y99770D01*
X38148Y99325D01*
X38101Y99270D01*
X29467D01*
X25282Y103454D01*
Y107465D01*
X20145D01*
Y105914D01*
X14450D01*
Y106500D01*
X12650Y108300D01*
X7550D01*
X5750Y106500D01*
Y102900D01*
X7550Y101100D01*
X12650D01*
X14450Y102900D01*
Y103486D01*
X20145D01*
Y101935D01*
X23368D01*
X28105Y97198D01*
X28105Y97198D01*
X28499Y96934D01*
X28964Y96842D01*
X42189D01*
X49170Y89861D01*
Y83908D01*
X48708Y83717D01*
X43121Y89304D01*
X42728Y89567D01*
X42263Y89660D01*
X42263Y89660D01*
X41075D01*
X40842Y90160D01*
X41074Y90507D01*
X41198Y91132D01*
X41074Y91756D01*
X40720Y92285D01*
X40191Y92639D01*
X39567Y92763D01*
X38943Y92639D01*
X38413Y92285D01*
X38060Y91756D01*
X37936Y91132D01*
X38060Y90507D01*
X38292Y90160D01*
X38058Y89660D01*
X29077D01*
X25282Y93454D01*
Y97465D01*
X20145D01*
Y95914D01*
X14450D01*
Y96500D01*
X12650Y98300D01*
X7550D01*
X5750Y96500D01*
Y92900D01*
X7550Y91100D01*
X12650D01*
X14450Y92900D01*
Y93486D01*
X20145D01*
Y91935D01*
X23368D01*
X27716Y87587D01*
X27716Y87587D01*
X28109Y87324D01*
X28574Y87232D01*
X41760D01*
X47389Y81603D01*
Y75059D01*
X46927Y74868D01*
X42881Y78914D01*
X42487Y79177D01*
X42023Y79270D01*
X42023Y79270D01*
X40561D01*
X40409Y79770D01*
X40720Y79978D01*
X41074Y80507D01*
X41198Y81132D01*
X41074Y81756D01*
X40720Y82285D01*
X40191Y82639D01*
X39567Y82763D01*
X38943Y82639D01*
X38413Y82285D01*
X38060Y81756D01*
X37936Y81132D01*
X38060Y80507D01*
X38413Y79978D01*
X38725Y79770D01*
X38573Y79270D01*
X29860D01*
X25282Y83848D01*
Y87465D01*
X20145D01*
Y85914D01*
X14450D01*
Y86500D01*
X12650Y88300D01*
X7550D01*
X5750Y86500D01*
Y82900D01*
X7550Y81100D01*
X12650D01*
X14450Y82900D01*
Y83486D01*
X20145D01*
Y81935D01*
X23762D01*
X28499Y77198D01*
X28499Y77198D01*
X28893Y76934D01*
X29357Y76842D01*
X41520D01*
X45608Y72754D01*
Y66544D01*
X45146Y66353D01*
X42585Y68914D01*
X42191Y69177D01*
X41727Y69270D01*
X41727Y69270D01*
X41157D01*
X40890Y69770D01*
X41074Y70045D01*
X41198Y70669D01*
X41074Y71294D01*
X40720Y71823D01*
X40191Y72176D01*
X39567Y72301D01*
X38943Y72176D01*
X38413Y71823D01*
X38060Y71294D01*
X37936Y70669D01*
X38060Y70045D01*
X38244Y69770D01*
X37976Y69270D01*
X29860D01*
X25282Y73848D01*
Y77465D01*
X20145D01*
Y75914D01*
X14450D01*
Y76500D01*
X12650Y78300D01*
X7550D01*
X5750Y76500D01*
Y72900D01*
X7550Y71100D01*
X12650D01*
X14450Y72900D01*
Y73486D01*
X20145D01*
Y71935D01*
X23762D01*
X28499Y67198D01*
X28499Y67198D01*
X28893Y66934D01*
X29357Y66842D01*
X41224D01*
X48234Y59832D01*
X48043Y59370D01*
X41098D01*
X40852Y59870D01*
X41074Y60202D01*
X41198Y60827D01*
X41074Y61451D01*
X40720Y61980D01*
X40191Y62334D01*
X39567Y62458D01*
X38943Y62334D01*
X38413Y61980D01*
X38060Y61451D01*
X37936Y60827D01*
X38060Y60202D01*
X38282Y59870D01*
X38036Y59370D01*
X29760D01*
X25282Y63848D01*
Y67465D01*
X20145D01*
Y66346D01*
X19876Y65995D01*
X19842Y65914D01*
X14450D01*
Y66500D01*
X12650Y68300D01*
X7550D01*
X5750Y66500D01*
Y62900D01*
X7550Y61100D01*
X12650D01*
X14450Y62900D01*
Y63486D01*
X19842D01*
X19876Y63405D01*
X20145Y63055D01*
Y61935D01*
X22128D01*
X22320Y61909D01*
X22512Y61935D01*
X23762D01*
X28399Y57298D01*
X28793Y57034D01*
X29257Y56942D01*
X29258Y56942D01*
X48428D01*
X66451Y38919D01*
X66298Y38456D01*
X66269Y38419D01*
X40558D01*
X25422Y53554D01*
Y57565D01*
X20285D01*
Y55914D01*
X14450D01*
Y56500D01*
X12650Y58300D01*
X7550D01*
X5750Y56500D01*
Y52900D01*
X7550Y51100D01*
X12650D01*
X14450Y52900D01*
Y53486D01*
X20285D01*
Y52035D01*
X23508D01*
X39197Y36346D01*
X39197Y36346D01*
X39591Y36083D01*
X40055Y35991D01*
X120866D01*
X120866Y35991D01*
X121331Y36083D01*
X121724Y36346D01*
X150732Y65354D01*
X150732Y65354D01*
X150996Y65748D01*
X151088Y66213D01*
Y127118D01*
Y130071D01*
X150996Y130535D01*
X150732Y130929D01*
X150338Y131192D01*
X149874Y131285D01*
X149409Y131192D01*
X149016Y130929D01*
X148764D01*
X148370Y131192D01*
X147905Y131285D01*
X147441Y131192D01*
X147047Y130929D01*
X146795D01*
X146402Y131192D01*
X145937Y131285D01*
X145473Y131192D01*
X145079Y130929D01*
X144827D01*
X144433Y131192D01*
X143968Y131285D01*
X143504Y131192D01*
X143352Y131091D01*
X142984Y130971D01*
X142617Y131091D01*
X142464Y131192D01*
X142000Y131285D01*
X141535Y131192D01*
X141142Y130929D01*
X140890D01*
X140496Y131192D01*
X140031Y131285D01*
X139567Y131192D01*
X139173Y130929D01*
X138921D01*
X138528Y131192D01*
X138063Y131285D01*
X137599Y131192D01*
X137205Y130929D01*
X136953D01*
X136559Y131192D01*
X136094Y131285D01*
X135630Y131192D01*
X135478Y131091D01*
X135110Y130971D01*
X134743Y131091D01*
X134590Y131192D01*
X134126Y131285D01*
X133661Y131192D01*
X133268Y130929D01*
X133016D01*
X132622Y131192D01*
X132157Y131285D01*
X131693Y131192D01*
X131299Y130929D01*
X131036Y130535D01*
X130944Y130071D01*
Y127118D01*
Y124165D01*
Y72530D01*
X130643Y72293D01*
X130170Y72502D01*
Y123326D01*
X130170Y123326D01*
X130077Y123790D01*
X129814Y124184D01*
X129814Y124184D01*
X124023Y129976D01*
Y130574D01*
X124471Y131022D01*
X129992D01*
X130457Y131115D01*
X130851Y131378D01*
X131114Y131772D01*
X131206Y132236D01*
X131114Y132701D01*
X130851Y133095D01*
Y133346D01*
X131114Y133740D01*
X131206Y134205D01*
X131114Y134669D01*
X131012Y134821D01*
X130892Y135189D01*
X131012Y135557D01*
X131114Y135709D01*
X131206Y136173D01*
X131114Y136638D01*
X130851Y137031D01*
Y137284D01*
X131114Y137677D01*
X131206Y138142D01*
X131114Y138606D01*
X130851Y139000D01*
X130457Y139263D01*
X129992Y139356D01*
X124087D01*
X123622Y139263D01*
X123228Y139000D01*
X122965Y138606D01*
X122873Y138142D01*
X122924Y137887D01*
X122603Y137387D01*
X121708D01*
X121244Y137295D01*
X120850Y137031D01*
X120850Y137031D01*
X120760Y136942D01*
X120201Y137090D01*
X119931Y137494D01*
X119402Y137848D01*
X118778Y137972D01*
X118153Y137848D01*
X117624Y137494D01*
X117270Y136965D01*
X117146Y136341D01*
X117270Y135716D01*
X117624Y135187D01*
X118028Y134917D01*
X118161Y134578D01*
X118168Y134321D01*
X117964Y134015D01*
X117871Y133550D01*
X117871Y133550D01*
Y128159D01*
X117871Y128159D01*
X117964Y127694D01*
X118227Y127301D01*
X123786Y121741D01*
Y73494D01*
X110758Y60466D01*
X76290D01*
X64206Y72550D01*
Y150000D01*
X64206Y150000D01*
X64114Y150464D01*
X63850Y150858D01*
X45995Y168714D01*
X45601Y168977D01*
X45136Y169070D01*
X45136Y169070D01*
X40163D01*
X40114Y169570D01*
X40388Y169624D01*
X40917Y169978D01*
X41271Y170507D01*
X41395Y171132D01*
X41271Y171756D01*
X40917Y172285D01*
X40388Y172639D01*
X39764Y172763D01*
X39140Y172639D01*
X38610Y172285D01*
X38257Y171756D01*
X38132Y171132D01*
X38257Y170507D01*
X38610Y169978D01*
X39140Y169624D01*
X39414Y169570D01*
X39364Y169070D01*
X30060D01*
X25282Y173848D01*
Y177465D01*
X20145D01*
Y175914D01*
X14450D01*
Y176500D01*
X12650Y178300D01*
D02*
G37*
G36*
X88098Y135141D02*
X86990Y134995D01*
X85958Y134567D01*
X85072Y133887D01*
X84392Y133001D01*
X83965Y131969D01*
X83819Y130862D01*
X83965Y129755D01*
X84392Y128723D01*
X85072Y127837D01*
X85958Y127157D01*
X86990Y126730D01*
X88098Y126584D01*
X89205Y126730D01*
X90237Y127157D01*
X91123Y127837D01*
X91803Y128723D01*
X92230Y129755D01*
X92376Y130862D01*
X92230Y131969D01*
X91803Y133001D01*
X91123Y133887D01*
X90237Y134567D01*
X89205Y134995D01*
X88098Y135141D01*
D02*
G37*
G36*
X153811Y131285D02*
X153347Y131192D01*
X152953Y130929D01*
X152690Y130535D01*
X152597Y130071D01*
Y124165D01*
X152690Y123701D01*
X152953Y123307D01*
X153347Y123044D01*
X153811Y122952D01*
X154276Y123044D01*
X154669Y123307D01*
X154932Y123701D01*
X155025Y124165D01*
Y130071D01*
X154932Y130535D01*
X154669Y130929D01*
X154276Y131192D01*
X153811Y131285D01*
D02*
G37*
G36*
X39370Y51631D02*
X38746Y51507D01*
X38217Y51153D01*
X37863Y50624D01*
X37739Y50000D01*
X37863Y49376D01*
X38217Y48847D01*
X38746Y48493D01*
X39370Y48369D01*
X39994Y48493D01*
X40524Y48847D01*
X40877Y49376D01*
X41001Y50000D01*
X40877Y50624D01*
X40524Y51153D01*
X39994Y51507D01*
X39370Y51631D01*
D02*
G37*
G36*
X196653Y44282D02*
X196029Y44158D01*
X195500Y43804D01*
X195146Y43275D01*
X195022Y42650D01*
X195146Y42026D01*
X195500Y41497D01*
X196029Y41143D01*
X196653Y41019D01*
X197278Y41143D01*
X197807Y41497D01*
X198161Y42026D01*
X198285Y42650D01*
X198161Y43275D01*
X197807Y43804D01*
X197278Y44158D01*
X196653Y44282D01*
D02*
G37*
G36*
X114071Y-7144D02*
X114038D01*
X114016Y-7150D01*
X113960Y-7155D01*
X113883Y-7172D01*
X113799Y-7199D01*
X113705Y-7244D01*
X113616Y-7299D01*
X113527Y-7377D01*
X113516Y-7388D01*
X113494Y-7416D01*
X113455Y-7466D01*
X113416Y-7538D01*
X113377Y-7621D01*
X113339Y-7727D01*
X113316Y-7843D01*
X113305Y-7976D01*
Y-7988D01*
Y-8015D01*
X113311Y-8065D01*
X113316Y-8126D01*
X113328Y-8198D01*
X113350Y-8276D01*
X113372Y-8359D01*
X113405Y-8443D01*
X113411Y-8454D01*
X113427Y-8482D01*
X113450Y-8520D01*
X113483Y-8570D01*
X113522Y-8620D01*
X113572Y-8681D01*
X113627Y-8731D01*
X113694Y-8781D01*
X113705Y-8787D01*
X113727Y-8798D01*
X113766Y-8820D01*
X113816Y-8837D01*
X113871Y-8859D01*
X113938Y-8881D01*
X114010Y-8892D01*
X114088Y-8898D01*
X114116D01*
X114138Y-8892D01*
X114193Y-8887D01*
X114266Y-8870D01*
X114343Y-8837D01*
X114432Y-8798D01*
X114521Y-8737D01*
X114565Y-8704D01*
X114604Y-8659D01*
Y-8654D01*
X114615Y-8648D01*
X114637Y-8615D01*
X114671Y-8559D01*
X114715Y-8487D01*
X114754Y-8393D01*
X114787Y-8282D01*
X114809Y-8154D01*
X114821Y-8004D01*
Y-7999D01*
Y-7988D01*
Y-7965D01*
X114815Y-7938D01*
Y-7904D01*
X114809Y-7865D01*
X114793Y-7777D01*
X114770Y-7677D01*
X114732Y-7571D01*
X114676Y-7472D01*
X114604Y-7377D01*
X114593Y-7366D01*
X114565Y-7338D01*
X114521Y-7305D01*
X114460Y-7261D01*
X114382Y-7216D01*
X114293Y-7183D01*
X114188Y-7155D01*
X114071Y-7144D01*
D02*
G37*
G36*
X106640Y-5751D02*
X106551D01*
X106529Y-5756D01*
X106468Y-5762D01*
X106396Y-5784D01*
X106307Y-5812D01*
X106212Y-5862D01*
X106118Y-5923D01*
X106074Y-5967D01*
X106029Y-6012D01*
Y-6017D01*
X106018Y-6023D01*
X106007Y-6039D01*
X105996Y-6056D01*
X105957Y-6112D01*
X105918Y-6189D01*
X105874Y-6284D01*
X105835Y-6400D01*
X105813Y-6533D01*
X105802Y-6678D01*
Y-6683D01*
Y-6695D01*
Y-6711D01*
X105807Y-6739D01*
Y-6772D01*
X105813Y-6805D01*
X105830Y-6889D01*
X105857Y-6983D01*
X105891Y-7083D01*
X105946Y-7183D01*
X106018Y-7272D01*
X106029Y-7283D01*
X106057Y-7305D01*
X106107Y-7344D01*
X106168Y-7383D01*
X106251Y-7427D01*
X106346Y-7466D01*
X106451Y-7488D01*
X106568Y-7499D01*
X106601D01*
X106623Y-7494D01*
X106684Y-7488D01*
X106756Y-7472D01*
X106845Y-7444D01*
X106934Y-7405D01*
X107023Y-7349D01*
X107106Y-7272D01*
X107117Y-7261D01*
X107139Y-7227D01*
X107173Y-7177D01*
X107217Y-7105D01*
X107256Y-7016D01*
X107289Y-6911D01*
X107311Y-6783D01*
X107322Y-6639D01*
Y-6633D01*
Y-6622D01*
Y-6600D01*
X107317Y-6572D01*
Y-6533D01*
X107311Y-6495D01*
X107295Y-6406D01*
X107273Y-6300D01*
X107234Y-6189D01*
X107178Y-6084D01*
X107106Y-5990D01*
Y-5984D01*
X107095Y-5979D01*
X107067Y-5951D01*
X107023Y-5912D01*
X106962Y-5867D01*
X106884Y-5829D01*
X106795Y-5790D01*
X106695Y-5762D01*
X106640Y-5751D01*
D02*
G37*
%LPD*%
D15*
X0Y-6700D02*
X6000Y-4700D01*
X0Y-6700D02*
X6000Y-8700D01*
X227700D02*
X233700Y-6700D01*
X227700Y-4700D02*
X233700Y-6700D01*
X0D02*
X101333D01*
X130367D02*
X233700D01*
X0Y-7700D02*
Y20700D01*
X233700Y-7700D02*
Y20700D01*
D17*
X127039Y153890D02*
D03*
Y151921D02*
D03*
Y149953D02*
D03*
Y147984D02*
D03*
Y146016D02*
D03*
Y144047D02*
D03*
Y142079D02*
D03*
Y140110D02*
D03*
Y138142D02*
D03*
Y136173D02*
D03*
Y134205D02*
D03*
Y132236D02*
D03*
X158929D02*
D03*
Y134205D02*
D03*
Y136173D02*
D03*
Y138142D02*
D03*
Y140110D02*
D03*
Y142079D02*
D03*
Y144047D02*
D03*
Y146016D02*
D03*
Y147984D02*
D03*
Y149953D02*
D03*
Y151921D02*
D03*
Y153890D02*
D03*
D18*
X132157Y127118D02*
D03*
X134126D02*
D03*
X136094D02*
D03*
X138063D02*
D03*
X140031D02*
D03*
X142000D02*
D03*
X143968D02*
D03*
X145937D02*
D03*
X147905D02*
D03*
X149874D02*
D03*
X151843D02*
D03*
X153811D02*
D03*
Y159008D02*
D03*
X151843D02*
D03*
X149874D02*
D03*
X147905D02*
D03*
X145937D02*
D03*
X143968D02*
D03*
X142000D02*
D03*
X140031D02*
D03*
X138063D02*
D03*
X136094D02*
D03*
X134126D02*
D03*
X132157D02*
D03*
D19*
X113991Y116818D02*
D03*
X108085D02*
D03*
D20*
Y121062D02*
D03*
X104148D02*
D03*
X104935Y143306D02*
D03*
X100998D02*
D03*
D21*
X108085Y128035D02*
D03*
Y137090D02*
D03*
X100998Y128035D02*
D03*
Y137090D02*
D03*
D22*
X29406Y184700D02*
D03*
X22713D02*
D03*
X29406Y174700D02*
D03*
X22713D02*
D03*
X29406Y164500D02*
D03*
X22713D02*
D03*
X29406Y154700D02*
D03*
X22713D02*
D03*
X29406Y144700D02*
D03*
X22713D02*
D03*
X29406Y134700D02*
D03*
X22713D02*
D03*
X29406Y124700D02*
D03*
X22713D02*
D03*
X29406Y114700D02*
D03*
X22713D02*
D03*
X29406Y104700D02*
D03*
X22713D02*
D03*
X29406Y94700D02*
D03*
X22713D02*
D03*
X29406Y84700D02*
D03*
X22713D02*
D03*
X29406Y74700D02*
D03*
X22713D02*
D03*
X29406Y64700D02*
D03*
X22713D02*
D03*
X29546Y54800D02*
D03*
X22853D02*
D03*
X204754Y198200D02*
D03*
X211446D02*
D03*
X204754Y188200D02*
D03*
X211446D02*
D03*
X204754Y178200D02*
D03*
X211446D02*
D03*
X204754Y168300D02*
D03*
X211446D02*
D03*
X204754Y158200D02*
D03*
X211446D02*
D03*
X204754Y148200D02*
D03*
X211446D02*
D03*
X204754Y138200D02*
D03*
X211446D02*
D03*
X204754Y128200D02*
D03*
X211446D02*
D03*
X204754Y118200D02*
D03*
X211446D02*
D03*
X204754Y108200D02*
D03*
X211446D02*
D03*
X204754Y98200D02*
D03*
X211446D02*
D03*
X204754Y88200D02*
D03*
X211446D02*
D03*
X204754Y78200D02*
D03*
X211446D02*
D03*
X204754Y68200D02*
D03*
X211446D02*
D03*
X204754Y58200D02*
D03*
X211446D02*
D03*
X204754Y48000D02*
D03*
X211446D02*
D03*
D23*
X34600Y231430D02*
D03*
Y220800D02*
D03*
X43600Y231430D02*
D03*
Y220800D02*
D03*
X52600Y231430D02*
D03*
Y220800D02*
D03*
D24*
X62165Y209045D02*
D03*
Y227155D02*
D03*
Y218100D02*
D03*
D25*
X85000D02*
D03*
D26*
X112040Y228400D02*
D03*
X104560D02*
D03*
Y218100D02*
D03*
X112040D02*
D03*
D46*
X133976Y176654D02*
Y194170D01*
Y176654D02*
X137598Y173031D01*
X133287Y195375D02*
X133976Y194685D01*
X172441Y152362D02*
Y171628D01*
X170031Y149953D02*
X172441Y152362D01*
X158929Y149953D02*
X170031D01*
X158346Y192235D02*
X162589Y187992D01*
X172244D01*
X158346Y192235D02*
Y194488D01*
X153268Y188701D02*
Y194409D01*
X153347Y194488D01*
X142913Y178347D02*
X153268Y188701D01*
X153811Y159008D02*
Y167449D01*
X137619Y169608D02*
X153129Y185118D01*
X137619Y167793D02*
Y169608D01*
X153129Y185118D02*
X174488D01*
X153740Y167520D02*
X153839D01*
X154033Y167326D01*
X153740Y167520D02*
X153811Y167449D01*
X124050Y178056D02*
X135433Y166673D01*
X29357Y178056D02*
X124050D01*
X143968Y170434D02*
X155090Y181556D01*
X139810Y168701D02*
X139997Y168514D01*
X142000Y166461D02*
Y170985D01*
X143968Y165911D02*
Y170434D01*
Y159008D02*
Y165911D01*
X142000Y170985D02*
X154352Y183337D01*
X138063Y159008D02*
Y167349D01*
X142000Y159008D02*
Y166461D01*
X139997Y159043D02*
Y168514D01*
X137619Y167793D02*
X138063Y167349D01*
X135433Y166673D02*
X136094Y166012D01*
X145937Y159008D02*
Y165360D01*
Y169884D02*
X155777Y179724D01*
X145937Y165360D02*
Y169884D01*
X136094Y159008D02*
Y166012D01*
X147905Y169334D02*
X156328Y177756D01*
X147905Y159008D02*
Y169334D01*
X149874Y159008D02*
Y168783D01*
X156878Y175787D01*
X151843Y159008D02*
Y168233D01*
X157428Y173819D01*
X156328Y177756D02*
X182874D01*
X157428Y173819D02*
X181693D01*
X155090Y181556D02*
X208041D01*
X155777Y179724D02*
X183858D01*
X156878Y175787D02*
X182283D01*
X154352Y183337D02*
X175463D01*
X22460Y54800D02*
X40055Y37205D01*
X211446Y48200D02*
X223900D01*
X111991Y118818D02*
X113991Y116818D01*
X103972Y157318D02*
X113306Y147983D01*
X104644Y159165D02*
X113857Y149952D01*
X111991Y118818D02*
Y139357D01*
X113857Y149952D02*
X127038D01*
X113306Y147983D02*
X127038D01*
X116680Y144046D02*
X127038D01*
X111991Y139357D02*
X116680Y144046D01*
X118013Y140852D02*
X119239Y142078D01*
X127038D01*
X103707Y146015D02*
X127038D01*
X152683Y151920D02*
X158928D01*
X152042Y152562D02*
X152683Y151920D01*
X100998Y143306D02*
X103707Y146015D01*
X96991Y157318D02*
X103972D01*
X92042Y152369D02*
X96991Y157318D01*
X92042Y146960D02*
Y152369D01*
Y159165D02*
X104644D01*
X120866Y128897D02*
Y132812D01*
X119085Y133550D02*
X121708Y136173D01*
X120866Y132812D02*
X122258Y134205D01*
X121708Y136173D02*
X127039D01*
X122258Y134205D02*
X127039D01*
X119085Y128159D02*
Y133550D01*
X168063Y153890D02*
X168307Y154134D01*
X158929Y153890D02*
X168063D01*
X120866Y37205D02*
X149874Y66213D01*
Y127118D01*
X40055Y37205D02*
X120866D01*
X69817Y45003D02*
X118352D01*
X142000Y68651D02*
Y127118D01*
X71293Y48565D02*
X116877D01*
X118352Y45003D02*
X142000Y68651D01*
X70555Y46784D02*
X117614D01*
X72030Y50346D02*
X116139D01*
X143968Y68101D02*
Y127082D01*
X69079Y43222D02*
X119090D01*
X68342Y41441D02*
X119828D01*
X140031Y69201D02*
Y127118D01*
X134126Y70852D02*
Y127118D01*
X136094Y70302D02*
Y127118D01*
X145937Y67550D02*
Y127118D01*
X116139Y50346D02*
X136094Y70302D01*
X120565Y39660D02*
X147905Y67000D01*
X67427Y39660D02*
X120565D01*
X147905Y67000D02*
Y127118D01*
X72768Y52128D02*
X115401D01*
X119828Y41441D02*
X145937Y67550D01*
X116877Y48565D02*
X138063Y69752D01*
X119090Y43222D02*
X143968Y68101D01*
X115401Y52128D02*
X134126Y70852D01*
X117614Y46784D02*
X140031Y69201D01*
X138063Y69752D02*
Y127118D01*
X73506Y53909D02*
X114145D01*
X132157Y71921D02*
Y127118D01*
X114145Y53909D02*
X132157Y71921D01*
X127175Y72647D02*
Y122588D01*
X74244Y55690D02*
X112973D01*
X111261Y59252D02*
X125000Y72991D01*
X112973Y55690D02*
X128956Y71672D01*
X111998Y57471D02*
X127175Y72647D01*
X75787Y59252D02*
X111261D01*
X128956Y71672D02*
Y123326D01*
X125000Y72991D02*
Y122244D01*
X74981Y57471D02*
X111998D01*
X119085Y128159D02*
X125000Y122244D01*
X10100Y184700D02*
X22713D01*
X10100Y174700D02*
X22713D01*
X10100Y164700D02*
X10300Y164500D01*
X22713D01*
X22819Y154700D02*
X28578Y148941D01*
X22713Y154700D02*
X22819D01*
X10100D02*
X22713D01*
Y144700D02*
X22713Y144700D01*
X10100Y144700D02*
X22713D01*
X22320Y134700D02*
X28079Y128941D01*
X22320Y134700D02*
X22713D01*
X10100D02*
X22320D01*
X10100Y124700D02*
X22713D01*
X10100Y64700D02*
X22120D01*
X10100Y74700D02*
X22713D01*
X10100Y84700D02*
X22713D01*
X22320Y94700D02*
X28574Y88446D01*
X10100Y94700D02*
X22320D01*
Y104700D02*
X28964Y98056D01*
X10100Y104700D02*
X22320D01*
X10100Y114700D02*
X22713D01*
X211446Y188200D02*
X223900D01*
X211247Y178200D02*
Y178350D01*
X211446Y178200D02*
X223900D01*
X223800Y168300D02*
X223900Y168200D01*
X211446Y168300D02*
X223800D01*
X211446Y158200D02*
X223900D01*
X211446Y148200D02*
X223900D01*
X59430Y70503D02*
X74244Y55690D01*
X45921Y118056D02*
X54087Y109890D01*
X55868Y69028D02*
X72768Y52128D01*
X54087Y68290D02*
X72030Y50346D01*
X54087Y68290D02*
Y109890D01*
X55868Y69028D02*
Y117951D01*
X61211Y71241D02*
X74981Y57471D01*
X62992Y72047D02*
X75787Y59252D01*
X61211Y71241D02*
Y144498D01*
X57649Y69766D02*
Y125619D01*
X47653Y158056D02*
X61211Y144498D01*
X45136Y167856D02*
X62992Y150000D01*
X57649Y69766D02*
X73506Y53909D01*
X62992Y72047D02*
Y150000D01*
X44327Y138941D02*
X57649Y125619D01*
X59430Y70503D02*
Y134468D01*
X44957Y148941D02*
X59430Y134468D01*
X44878Y128941D02*
X55868Y117951D01*
X46822Y65479D02*
X69079Y43222D01*
X52165Y67693D02*
Y95473D01*
X42692Y98056D02*
X50384Y90364D01*
X48603Y66217D02*
X69817Y45003D01*
X50384Y66955D02*
X70555Y46784D01*
X42023Y78056D02*
X46822Y73257D01*
X52165Y67693D02*
X71293Y48565D01*
X48603Y66217D02*
Y82105D01*
X39582Y108056D02*
X52165Y95473D01*
X50384Y66955D02*
Y90364D01*
X46822Y65479D02*
Y73257D01*
X42263Y88446D02*
X48603Y82105D01*
X28964Y98056D02*
X42692D01*
X29257Y58156D02*
X48931D01*
X67427Y39660D01*
X29357Y68056D02*
X41727D01*
X68342Y41441D01*
X28574Y88446D02*
X42263D01*
X29357Y78056D02*
X42023D01*
X22713Y84700D02*
X29357Y78056D01*
X22713Y74700D02*
X29357Y68056D01*
X183858Y179724D02*
X191927Y171656D01*
X182874Y177756D02*
X191732Y168898D01*
X188976Y156972D02*
Y169095D01*
X182283Y175787D02*
X188976Y169095D01*
X191732Y163583D02*
Y168898D01*
X187008Y150197D02*
Y168504D01*
X181693Y173819D02*
X187008Y168504D01*
X175463Y183337D02*
X183682Y191556D01*
X174488Y185118D02*
X192126Y202756D01*
X208041Y181556D02*
X211247Y178350D01*
X188976Y156972D02*
X194392Y151556D01*
X191732Y163583D02*
X193759Y161556D01*
X187008Y150197D02*
X195669Y141535D01*
X202272D01*
X191927Y171656D02*
X207215D01*
X193759Y161556D02*
X208091D01*
X194392Y151556D02*
X208091D01*
X211446Y148200D01*
X189980Y106674D02*
Y122064D01*
X194488Y102165D02*
X207481D01*
X189980Y106674D02*
X194488Y102165D01*
X210571Y108200D02*
X211446D01*
X207215Y111556D02*
X210571Y108200D01*
X191761Y116310D02*
X196515Y111556D01*
X202292D01*
X207215D01*
X180905Y62008D02*
Y118504D01*
X182687Y72628D02*
Y119282D01*
X168314Y136173D02*
X184468Y120020D01*
X167764Y134205D02*
X182687Y119282D01*
X167173Y132236D02*
X180905Y118504D01*
X184468Y79509D02*
X192126Y71850D01*
X182687Y72628D02*
X193307Y62008D01*
X180905D02*
X191535Y51378D01*
X184468Y79509D02*
Y120020D01*
X169415Y140110D02*
X188198Y121327D01*
X169965Y142079D02*
X189980Y122064D01*
X186417Y90551D02*
X195079Y81890D01*
X188198Y98022D02*
Y121327D01*
X186417Y90551D02*
Y120589D01*
X168864Y138142D02*
X186417Y120589D01*
X170516Y144047D02*
X191761Y122802D01*
Y116310D02*
Y122802D01*
X188198Y98022D02*
X194095Y92126D01*
X158929Y132236D02*
X167173D01*
X158929Y142079D02*
X169965D01*
X158929Y140110D02*
X169415D01*
X158929Y144047D02*
X170516D01*
X158929Y136173D02*
X168314D01*
X171307Y146016D02*
X186221Y131102D01*
X195669Y121653D01*
X207993D01*
X158929Y134205D02*
X167764D01*
X158929Y138142D02*
X168864D01*
X158929Y146016D02*
X171307D01*
X172095Y147984D02*
X188386Y131693D01*
X207954D01*
X158929Y147984D02*
X172095D01*
X207993Y121653D02*
X211446Y118200D01*
X193307Y62008D02*
X207639D01*
X191535Y51378D02*
X208068D01*
X211446Y48000D01*
X207639Y62008D02*
X211446Y58200D01*
X192126Y71850D02*
X207796D01*
X211446Y68200D01*
X195079Y81890D02*
X207757D01*
X211446Y78200D01*
X194095Y92126D02*
X207521D01*
X211446Y88200D01*
X207481Y102165D02*
X211446Y98200D01*
X207954Y131693D02*
X211446Y128200D01*
X207215Y141556D02*
X207236Y141535D01*
X208111D02*
X211446Y138200D01*
X202272Y141535D02*
X202292Y141556D01*
X207236Y141535D02*
X208111D01*
X202292Y141556D02*
X207215D01*
X208091Y161556D02*
X211446Y158200D01*
X207218Y171653D02*
X208093D01*
X207215Y171656D02*
X207218Y171653D01*
X208093D02*
X211446Y168300D01*
X211247Y178200D02*
X211446D01*
X192126Y202756D02*
X206891D01*
X210571Y188200D02*
X211446D01*
X207215Y191556D02*
X210571Y188200D01*
X183682Y191556D02*
X207215D01*
X206891Y202756D02*
X208268Y201378D01*
X211446Y198200D01*
X28578Y148941D02*
X44957D01*
X29157Y158056D02*
X47653D01*
X22713Y114700D02*
X29357Y108056D01*
X39582D01*
X122809Y129473D02*
Y131077D01*
X120866Y128897D02*
X127175Y122588D01*
X122809Y129473D02*
X128956Y123326D01*
X122809Y131077D02*
X123969Y132236D01*
X127039D01*
X28079Y128941D02*
X44878D01*
X22713Y164500D02*
X29157Y158056D01*
X29557Y167856D02*
X45136D01*
X22713Y174700D02*
X29557Y167856D01*
X22713Y64700D02*
X29257Y58156D01*
X22713Y184700D02*
X29357Y178056D01*
Y118056D02*
X45921D01*
X22713Y124700D02*
X29357Y118056D01*
X28472Y138941D02*
X44327D01*
X22713Y144700D02*
X28472Y138941D01*
X211446Y198200D02*
X223900D01*
X211446Y138200D02*
X223900D01*
X211446Y108200D02*
X223900D01*
X211446Y118200D02*
X223900D01*
X211446Y128200D02*
X223900D01*
X211446Y98200D02*
X223900D01*
X211446Y78200D02*
X223900D01*
X211446Y88200D02*
X223900D01*
X211446Y68200D02*
X223900D01*
X211446Y58200D02*
X223900D01*
X211446Y48000D02*
Y48200D01*
X22360Y54700D02*
X22460Y54800D01*
X10100Y54700D02*
X22360D01*
D47*
X57891Y231430D02*
X62165Y227155D01*
X52600Y231430D02*
X57891D01*
X43600D02*
X52600D01*
X34600D02*
X43600D01*
X17300Y230800D02*
X17930Y231430D01*
X34600D01*
X29406Y64700D02*
X40615D01*
X40748Y64567D01*
X41284Y84700D02*
X41535Y84449D01*
X29406Y84700D02*
X41284D01*
X29800Y154700D02*
X42150D01*
X42323Y154528D01*
X42141Y144700D02*
X42323Y144882D01*
X29800Y144700D02*
X42141D01*
X42268Y134700D02*
X42323Y134646D01*
X29800Y134700D02*
X42268D01*
X29800Y124700D02*
X41639D01*
X41929Y124409D01*
X29800Y114700D02*
X41599D01*
X41732Y114567D01*
X29406Y94700D02*
X41521D01*
X41535Y94685D01*
X29406Y74700D02*
X40851D01*
X40945Y74606D01*
X192216Y158200D02*
X192497Y157919D01*
X195086Y168497D02*
X195283Y168300D01*
X192216Y178200D02*
X204360D01*
X198766Y158200D02*
X204754D01*
X198485Y157919D02*
X198766Y158200D01*
X192497Y157919D02*
X198485D01*
X193898Y148228D02*
X193926Y148200D01*
X204360D01*
X195283Y168300D02*
X204754D01*
X193590Y128200D02*
X204754D01*
X192126Y48031D02*
X192157Y48000D01*
X192216Y78140D02*
X198455D01*
X198515Y78200D01*
X204754D01*
X192216Y68200D02*
X204360D01*
X195381Y138200D02*
X204754D01*
X192216Y198200D02*
X204360D01*
X194710Y108200D02*
X204360D01*
X198435Y118200D02*
X204360D01*
X192178Y188263D02*
X192241Y188200D01*
X204360D01*
X194434Y98200D02*
X204360D01*
X194434Y88200D02*
X204360D01*
X192199Y57211D02*
X193188Y58200D01*
X204754D01*
X192157Y48000D02*
X204360D01*
X29800Y164500D02*
X41013D01*
X43795Y174700D02*
X43898Y174803D01*
X29406Y104700D02*
X38470D01*
X43843Y184700D02*
X43898Y184646D01*
X29800Y184700D02*
X43843D01*
X29800Y174700D02*
X43795D01*
X29546Y54800D02*
X40106D01*
X22120Y64700D02*
X22320Y64500D01*
X104560Y210240D02*
Y218100D01*
Y210240D02*
X104700Y210100D01*
D48*
X108085Y138550D02*
X111198Y141662D01*
X134098Y158980D02*
X134124Y159007D01*
X134098Y152162D02*
Y158980D01*
X100998Y128035D02*
X108085Y135121D01*
Y138550D01*
Y142175D01*
X106954Y143306D02*
X108085Y142175D01*
X104935Y143306D02*
X106954D01*
D49*
X127038Y140109D02*
X135694D01*
X136742Y139062D01*
X151841Y135261D02*
X151942Y135362D01*
X151841Y127117D02*
Y135261D01*
X100998Y124212D02*
Y128035D01*
Y124212D02*
X104148Y121062D01*
D50*
X108085D02*
Y128035D01*
D51*
Y116818D02*
Y121062D01*
X100998Y137090D02*
Y143306D01*
D52*
X52600Y220800D02*
X55300Y218100D01*
X62165D01*
X17300Y220800D02*
X34600D01*
X43600D01*
X48230Y216165D02*
X48235D01*
X46784Y217612D02*
X48230Y216165D01*
X46784Y217612D02*
Y217617D01*
X48235Y216165D02*
X55355Y209045D01*
X43600Y220800D02*
X46784Y217617D01*
X55355Y209045D02*
X62165D01*
D53*
X85000Y218100D02*
X93600D01*
X93700Y218000D01*
X112040Y218100D02*
Y228400D01*
X93700Y224800D02*
X97300Y228400D01*
X104560D01*
X93700Y218000D02*
Y224800D01*
D54*
X128976Y194170D02*
D03*
X163347Y194488D02*
D03*
D55*
X133976Y194170D02*
D03*
X138976D02*
D03*
X148346Y194488D02*
D03*
X153347D02*
D03*
X158346D02*
D03*
D56*
X92042Y159165D02*
D03*
Y146960D02*
D03*
D57*
X88098Y130862D02*
D03*
D58*
Y110862D02*
D03*
D59*
X10100Y184700D02*
D03*
Y174700D02*
D03*
Y164700D02*
D03*
Y154700D02*
D03*
Y144700D02*
D03*
Y134700D02*
D03*
Y124700D02*
D03*
Y114700D02*
D03*
Y104700D02*
D03*
Y94700D02*
D03*
Y84700D02*
D03*
Y74700D02*
D03*
Y64700D02*
D03*
Y54700D02*
D03*
X223900Y198200D02*
D03*
Y188200D02*
D03*
Y178200D02*
D03*
Y168200D02*
D03*
Y158200D02*
D03*
Y148200D02*
D03*
Y138200D02*
D03*
Y128200D02*
D03*
Y118200D02*
D03*
Y108200D02*
D03*
Y98200D02*
D03*
Y88200D02*
D03*
Y78200D02*
D03*
Y68200D02*
D03*
Y58200D02*
D03*
Y48200D02*
D03*
D60*
X17300Y230800D02*
D03*
D61*
Y220800D02*
D03*
D62*
X172244Y187992D02*
D03*
X172441Y171628D02*
D03*
X142913Y178347D02*
D03*
X154033Y167326D02*
D03*
X132874Y164567D02*
D03*
X139810Y168701D02*
D03*
X137598Y173031D02*
D03*
X118778Y136341D02*
D03*
X152042Y152562D02*
D03*
X134098Y152162D02*
D03*
X151942Y135362D02*
D03*
X111198Y141662D02*
D03*
X118013Y140852D02*
D03*
X136742Y139062D02*
D03*
X168307Y157480D02*
D03*
Y154134D02*
D03*
X40748Y64567D02*
D03*
X41535Y84449D02*
D03*
X39567Y81132D02*
D03*
X42323Y154528D02*
D03*
Y144882D02*
D03*
Y134646D02*
D03*
X41929Y124409D02*
D03*
X41732Y114567D02*
D03*
X41535Y94685D02*
D03*
X40945Y74606D02*
D03*
X192216Y158200D02*
D03*
X195086Y168497D02*
D03*
X196653Y164173D02*
D03*
X192216Y178200D02*
D03*
X193898Y148228D02*
D03*
X197244Y144291D02*
D03*
X193590Y128200D02*
D03*
X196457Y54528D02*
D03*
X192126Y48031D02*
D03*
X196653Y42650D02*
D03*
X192216Y78140D02*
D03*
X196457Y64631D02*
D03*
X196653Y74572D02*
D03*
Y94317D02*
D03*
X196850Y84632D02*
D03*
Y104528D02*
D03*
X197279Y114173D02*
D03*
X196653Y124213D02*
D03*
X197580Y134632D02*
D03*
X195381Y138200D02*
D03*
X196653Y154331D02*
D03*
Y174409D02*
D03*
X192216Y198200D02*
D03*
X196653Y184252D02*
D03*
X197014Y194468D02*
D03*
X194710Y108200D02*
D03*
X198435Y118200D02*
D03*
X192178Y188263D02*
D03*
X192216Y68200D02*
D03*
X194434Y88200D02*
D03*
Y98200D02*
D03*
X192199Y57211D02*
D03*
X39764Y151131D02*
D03*
X41013Y164500D02*
D03*
X43898Y174803D02*
D03*
X39961Y180905D02*
D03*
X39764Y171132D02*
D03*
X38470Y104700D02*
D03*
X43898Y184646D02*
D03*
X39567Y111024D02*
D03*
Y100787D02*
D03*
Y70669D02*
D03*
Y60827D02*
D03*
X40106Y54800D02*
D03*
X39370Y50000D02*
D03*
X39764Y160932D02*
D03*
Y141131D02*
D03*
X39567Y131131D02*
D03*
X39764Y121132D02*
D03*
X39567Y91132D02*
D03*
X104700Y210100D02*
D03*
X93700Y218000D02*
D03*
M02*
