G04*
G04 #@! TF.GenerationSoftware,Altium Limited,Altium Designer,22.3.1 (43)*
G04*
G04 Layer_Color=255*
%FSLAX25Y25*%
%MOIN*%
G70*
G04*
G04 #@! TF.SameCoordinates,37EF6849-63C4-43C5-BECF-61DC3FF8894A*
G04*
G04*
G04 #@! TF.FilePolarity,Positive*
G04*
G01*
G75*
%ADD17O,0.07087X0.01181*%
%ADD18O,0.01181X0.07087*%
%ADD19R,0.02756X0.03543*%
%ADD20R,0.02362X0.01968*%
%ADD21R,0.04331X0.05118*%
%ADD22R,0.03937X0.04331*%
%ADD23R,0.06693X0.04331*%
%ADD24R,0.08465X0.03740*%
%ADD25R,0.08465X0.12795*%
%ADD26R,0.05118X0.06299*%
%ADD54R,0.03937X0.03937*%
%ADD55C,0.03937*%
%ADD56C,0.05118*%
%ADD57C,0.07284*%
%ADD58R,0.07284X0.07284*%
G04:AMPARAMS|DCode=59|XSize=75mil|YSize=60mil|CornerRadius=0mil|HoleSize=0mil|Usage=FLASHONLY|Rotation=180.000|XOffset=0mil|YOffset=0mil|HoleType=Round|Shape=Octagon|*
%AMOCTAGOND59*
4,1,8,-0.03750,0.01500,-0.03750,-0.01500,-0.02250,-0.03000,0.02250,-0.03000,0.03750,-0.01500,0.03750,0.01500,0.02250,0.03000,-0.02250,0.03000,-0.03750,0.01500,0.0*
%
%ADD59OCTAGOND59*%

%ADD60R,0.05906X0.05906*%
%ADD61C,0.05906*%
D17*
X127039Y153890D02*
D03*
Y151921D02*
D03*
Y149953D02*
D03*
Y147984D02*
D03*
Y146016D02*
D03*
Y144047D02*
D03*
Y142079D02*
D03*
Y140110D02*
D03*
Y138142D02*
D03*
Y136173D02*
D03*
Y134205D02*
D03*
Y132236D02*
D03*
X158929D02*
D03*
Y134205D02*
D03*
Y136173D02*
D03*
Y138142D02*
D03*
Y140110D02*
D03*
Y142079D02*
D03*
Y144047D02*
D03*
Y146016D02*
D03*
Y147984D02*
D03*
Y149953D02*
D03*
Y151921D02*
D03*
Y153890D02*
D03*
D18*
X132157Y127118D02*
D03*
X134126D02*
D03*
X136094D02*
D03*
X138063D02*
D03*
X140031D02*
D03*
X142000D02*
D03*
X143968D02*
D03*
X145937D02*
D03*
X147905D02*
D03*
X149874D02*
D03*
X151843D02*
D03*
X153811D02*
D03*
Y159008D02*
D03*
X151843D02*
D03*
X149874D02*
D03*
X147905D02*
D03*
X145937D02*
D03*
X143968D02*
D03*
X142000D02*
D03*
X140031D02*
D03*
X138063D02*
D03*
X136094D02*
D03*
X134126D02*
D03*
X132157D02*
D03*
D19*
X113991Y116818D02*
D03*
X108085D02*
D03*
D20*
Y121062D02*
D03*
X104148D02*
D03*
X104935Y143306D02*
D03*
X100998D02*
D03*
D21*
X108085Y128035D02*
D03*
Y137090D02*
D03*
X100998Y128035D02*
D03*
Y137090D02*
D03*
D22*
X29406Y184700D02*
D03*
X22713D02*
D03*
X29406Y174700D02*
D03*
X22713D02*
D03*
X29406Y164500D02*
D03*
X22713D02*
D03*
X29406Y154700D02*
D03*
X22713D02*
D03*
X29406Y144700D02*
D03*
X22713D02*
D03*
X29406Y134700D02*
D03*
X22713D02*
D03*
X29406Y124700D02*
D03*
X22713D02*
D03*
X29406Y114700D02*
D03*
X22713D02*
D03*
X29406Y104700D02*
D03*
X22713D02*
D03*
X29406Y94700D02*
D03*
X22713D02*
D03*
X29406Y84700D02*
D03*
X22713D02*
D03*
X29406Y74700D02*
D03*
X22713D02*
D03*
X29406Y64700D02*
D03*
X22713D02*
D03*
X29546Y54800D02*
D03*
X22853D02*
D03*
X204754Y198200D02*
D03*
X211446D02*
D03*
X204754Y188200D02*
D03*
X211446D02*
D03*
X204754Y178200D02*
D03*
X211446D02*
D03*
X204754Y168300D02*
D03*
X211446D02*
D03*
X204754Y158200D02*
D03*
X211446D02*
D03*
X204754Y148200D02*
D03*
X211446D02*
D03*
X204754Y138200D02*
D03*
X211446D02*
D03*
X204754Y128200D02*
D03*
X211446D02*
D03*
X204754Y118200D02*
D03*
X211446D02*
D03*
X204754Y108200D02*
D03*
X211446D02*
D03*
X204754Y98200D02*
D03*
X211446D02*
D03*
X204754Y88200D02*
D03*
X211446D02*
D03*
X204754Y78200D02*
D03*
X211446D02*
D03*
X204754Y68200D02*
D03*
X211446D02*
D03*
X204754Y58200D02*
D03*
X211446D02*
D03*
X204754Y48000D02*
D03*
X211446D02*
D03*
D23*
X34600Y231430D02*
D03*
Y220800D02*
D03*
X43600Y231430D02*
D03*
Y220800D02*
D03*
X52600Y231430D02*
D03*
Y220800D02*
D03*
D24*
X62165Y209045D02*
D03*
Y227155D02*
D03*
Y218100D02*
D03*
D25*
X85000D02*
D03*
D26*
X112040Y228400D02*
D03*
X104560D02*
D03*
Y218100D02*
D03*
X112040D02*
D03*
D54*
X128976Y194170D02*
D03*
X163347Y194488D02*
D03*
D55*
X133976Y194170D02*
D03*
X138976D02*
D03*
X148346Y194488D02*
D03*
X153347D02*
D03*
X158346D02*
D03*
D56*
X92042Y159165D02*
D03*
Y146960D02*
D03*
D57*
X88098Y130862D02*
D03*
D58*
Y110862D02*
D03*
D59*
X10100Y184700D02*
D03*
Y174700D02*
D03*
Y164700D02*
D03*
Y154700D02*
D03*
Y144700D02*
D03*
Y134700D02*
D03*
Y124700D02*
D03*
Y114700D02*
D03*
Y104700D02*
D03*
Y94700D02*
D03*
Y84700D02*
D03*
Y74700D02*
D03*
Y64700D02*
D03*
Y54700D02*
D03*
X223900Y198200D02*
D03*
Y188200D02*
D03*
Y178200D02*
D03*
Y168200D02*
D03*
Y158200D02*
D03*
Y148200D02*
D03*
Y138200D02*
D03*
Y128200D02*
D03*
Y118200D02*
D03*
Y108200D02*
D03*
Y98200D02*
D03*
Y88200D02*
D03*
Y78200D02*
D03*
Y68200D02*
D03*
Y58200D02*
D03*
Y48200D02*
D03*
D60*
X17300Y230800D02*
D03*
D61*
Y220800D02*
D03*
M02*
