G04*
G04 #@! TF.GenerationSoftware,Altium Limited,Altium Designer,22.3.1 (43)*
G04*
G04 Layer_Color=128*
%FSLAX25Y25*%
%MOIN*%
G70*
G04*
G04 #@! TF.SameCoordinates,37EF6849-63C4-43C5-BECF-61DC3FF8894A*
G04*
G04*
G04 #@! TF.FilePolarity,Positive*
G04*
G01*
G75*
%ADD22R,0.03937X0.04331*%
%ADD70R,0.03150X0.03543*%
%ADD71R,0.03543X0.03150*%
%ADD72R,0.01968X0.02362*%
D22*
X22713Y184700D02*
D03*
X29406D02*
D03*
X22713Y174700D02*
D03*
X29406D02*
D03*
X22713Y164700D02*
D03*
X29406D02*
D03*
X22713Y154700D02*
D03*
X29406D02*
D03*
X22713Y144700D02*
D03*
X29406D02*
D03*
X22713Y134700D02*
D03*
X29406D02*
D03*
X22713Y124700D02*
D03*
X29406D02*
D03*
X22713Y114700D02*
D03*
X29406D02*
D03*
X22713Y104700D02*
D03*
X29406D02*
D03*
X22713Y94700D02*
D03*
X29406D02*
D03*
X22713Y84700D02*
D03*
X29406D02*
D03*
X22713Y74700D02*
D03*
X29406D02*
D03*
X22713Y64700D02*
D03*
X29406D02*
D03*
X22713Y54700D02*
D03*
X29406D02*
D03*
X211446Y198200D02*
D03*
X204753D02*
D03*
X211446Y188100D02*
D03*
X204753D02*
D03*
X211446Y178100D02*
D03*
X204753D02*
D03*
X211446Y168300D02*
D03*
X204753D02*
D03*
X211446Y158200D02*
D03*
X204753D02*
D03*
X211446Y148200D02*
D03*
X204753D02*
D03*
X211446Y138200D02*
D03*
X204753D02*
D03*
X211446Y128100D02*
D03*
X204753D02*
D03*
X211446Y118100D02*
D03*
X204753D02*
D03*
X211446Y108200D02*
D03*
X204753D02*
D03*
X211446Y98200D02*
D03*
X204753D02*
D03*
X211446Y88200D02*
D03*
X204753D02*
D03*
X211446Y78200D02*
D03*
X204753D02*
D03*
X211446Y68200D02*
D03*
X204753D02*
D03*
X211446Y58200D02*
D03*
X204753D02*
D03*
X211446Y48200D02*
D03*
X204753D02*
D03*
D70*
X123786Y143806D02*
D03*
X129298D02*
D03*
X123786Y134062D02*
D03*
X129298D02*
D03*
X123786Y139062D02*
D03*
X129298D02*
D03*
X162554Y152562D02*
D03*
X157042D02*
D03*
X162554Y157562D02*
D03*
X157042D02*
D03*
D71*
X153297Y123806D02*
D03*
Y129318D02*
D03*
X158042Y123806D02*
D03*
Y129318D02*
D03*
X132814Y162808D02*
D03*
Y157296D02*
D03*
D72*
X87042Y150897D02*
D03*
Y146960D02*
D03*
Y155228D02*
D03*
Y159165D02*
D03*
M02*
