G04*
G04 #@! TF.GenerationSoftware,Altium Limited,Altium Designer,22.3.1 (43)*
G04*
G04 Layer_Physical_Order=5*
G04 Layer_Color=128*
%FSLAX25Y25*%
%MOIN*%
G70*
G04*
G04 #@! TF.SameCoordinates,37EF6849-63C4-43C5-BECF-61DC3FF8894A*
G04*
G04*
G04 #@! TF.FilePolarity,Negative*
G04*
G01*
G75*
%ADD63C,0.04000*%
%ADD64C,0.06362*%
%ADD65C,0.06756*%
%ADD66C,0.08331*%
%ADD67C,0.07937*%
%ADD68C,0.07543*%
%ADD69C,0.05000*%
D63*
X0Y23300D02*
X233700D01*
X233700Y242000D02*
X233700Y23300D01*
X0Y242000D02*
X233700D01*
X0Y23300D02*
Y242000D01*
D64*
X133976Y194170D02*
D03*
X138976D02*
D03*
X148346Y194488D02*
D03*
X153347D02*
D03*
X158346D02*
D03*
D65*
X92042Y159165D02*
D03*
Y146960D02*
D03*
D66*
X88098Y130862D02*
D03*
Y110862D02*
D03*
D67*
X10100Y184700D02*
D03*
Y174700D02*
D03*
Y164700D02*
D03*
Y154700D02*
D03*
Y144700D02*
D03*
Y134700D02*
D03*
Y124700D02*
D03*
Y114700D02*
D03*
Y104700D02*
D03*
Y94700D02*
D03*
Y84700D02*
D03*
Y74700D02*
D03*
Y64700D02*
D03*
Y54700D02*
D03*
X223900Y198200D02*
D03*
Y188200D02*
D03*
Y178200D02*
D03*
Y168200D02*
D03*
Y158200D02*
D03*
Y148200D02*
D03*
Y138200D02*
D03*
Y128200D02*
D03*
Y118200D02*
D03*
Y108200D02*
D03*
Y98200D02*
D03*
Y88200D02*
D03*
Y78200D02*
D03*
Y68200D02*
D03*
Y58200D02*
D03*
Y48200D02*
D03*
D68*
X17300Y230800D02*
D03*
Y220800D02*
D03*
D69*
X172244Y187992D02*
D03*
X172441Y171628D02*
D03*
X142913Y178347D02*
D03*
X154033Y167326D02*
D03*
X139810Y168701D02*
D03*
X137598Y173031D02*
D03*
X152042Y152562D02*
D03*
X134098Y152162D02*
D03*
X151942Y135362D02*
D03*
X111198Y141662D02*
D03*
X118013Y140852D02*
D03*
X136742Y139062D02*
D03*
X40748Y64567D02*
D03*
X41535Y84449D02*
D03*
X42323Y154528D02*
D03*
Y144882D02*
D03*
Y134646D02*
D03*
X41929Y124409D02*
D03*
X41732Y114567D02*
D03*
X41535Y94685D02*
D03*
X40945Y74606D02*
D03*
X192216Y158200D02*
D03*
X195086Y168497D02*
D03*
X192216Y178200D02*
D03*
X193898Y148228D02*
D03*
X193590Y128200D02*
D03*
X192126Y48031D02*
D03*
X192216Y78140D02*
D03*
X195381Y138200D02*
D03*
X192216Y198200D02*
D03*
X194710Y108200D02*
D03*
X198435Y118200D02*
D03*
X192178Y188263D02*
D03*
X192216Y68200D02*
D03*
X194434Y88200D02*
D03*
Y98200D02*
D03*
X192199Y57211D02*
D03*
X41013Y164500D02*
D03*
X43898Y174803D02*
D03*
X38470Y104700D02*
D03*
X43898Y184646D02*
D03*
X40106Y54800D02*
D03*
X104700Y210100D02*
D03*
M02*
